<svg width="20" height="22" viewBox="0 0 20 22" fill="none" xmlns="http://www.w3.org/2000/svg">
<path d="M9.84521 5.36523V8.69523" stroke="#173F35" stroke-miterlimit="10" stroke-linecap="round"/>
<path d="M9.86511 0.924805C6.18511 0.924805 3.20511 3.9048 3.20511 7.5848V9.6848C3.20511 10.3648 2.92511 11.3848 2.57511 11.9648L1.30511 14.0848C0.525113 15.3948 1.06511 16.8548 2.50511 17.3348C7.28511 18.9248 12.4551 18.9248 17.2351 17.3348C18.5851 16.8848 19.1651 15.3048 18.4351 14.0848L17.1651 11.9648C16.8151 11.3848 16.5351 10.3548 16.5351 9.6848V7.5848C16.5251 3.9248 13.5251 0.924805 9.86511 0.924805Z" stroke="#173F35" stroke-miterlimit="10" stroke-linecap="round"/>
<path d="M13.1751 17.7451C13.1751 19.5751 11.6751 21.0751 9.84514 21.0751C8.93514 21.0751 8.09514 20.6951 7.49514 20.0951C6.89514 19.4951 6.51514 18.6551 6.51514 17.7451" stroke="#173F35" stroke-miterlimit="10"/>
</svg>
