<svg width="320" height="326" viewBox="0 0 320 326" fill="none" xmlns="http://www.w3.org/2000/svg">
<path d="M12.3247 108.829C31.1847 106.849 49.9247 104.119 68.3447 99.5787C71.7147 98.7487 73.0247 99.6287 74.3747 102.509C78.2347 110.789 82.5547 118.859 86.3147 127.179C87.8847 130.639 89.9447 131.289 93.3447 130.619C100.525 129.189 107.995 128.769 114.885 126.519C120.905 124.559 127.055 125.189 133.025 123.699C139.465 122.089 146.095 121.239 152.645 120.049C156.358 119.375 158.091 117.315 157.845 113.869C158.005 113.849 158.305 113.769 158.325 113.809C161.125 120.109 166.115 117.689 170.665 116.889C191.305 113.269 211.935 109.599 232.575 105.989C254.185 102.209 275.795 98.4287 297.425 94.7187C304.825 93.4487 307.265 95.4787 307.455 102.799C308.105 128.269 308.715 153.729 309.365 179.199C309.545 186.359 309.885 193.509 310.025 200.669C310.225 210.589 307.165 214.909 297.715 218.029C248.485 234.299 199.235 250.549 149.995 266.799C145.828 268.172 144.655 270.905 146.475 274.999C148.895 280.469 151.295 285.949 153.695 291.419C153.165 292.969 152.055 293.449 150.525 293.169C145.905 288.729 144.985 282.339 142.085 276.979C139.045 271.339 139.325 271.199 133.075 271.969C124.655 272.999 116.325 274.619 107.905 275.649C104.025 276.119 103.585 277.599 105.345 280.829C108.205 286.089 110.705 291.529 113.425 296.869C114.185 298.509 115.115 300.069 115.785 301.749C117.305 305.579 120.015 306.999 123.995 306.059C129.245 305.189 134.515 304.519 139.775 303.759C141.745 303.479 143.745 303.099 145.515 304.489C146.235 305.589 146.325 306.689 145.565 307.809C138.195 308.929 130.825 310.049 123.455 311.169C119.045 314.139 114.015 313.899 109.055 313.879C107.735 313.879 106.245 313.439 106.005 311.829C105.775 310.299 106.855 309.219 108.165 308.829C112.145 307.639 111.245 305.379 109.825 302.719C108.825 300.849 107.445 299.029 107.975 296.659C105.185 290.999 102.795 285.109 99.5447 279.729C77.2647 242.819 62.7647 202.159 43.5347 163.789C40.5647 157.859 37.9147 151.749 35.1947 145.699C34.6447 144.479 33.0747 142.359 35.0947 141.949C40.0747 140.949 37.2547 138.699 36.2347 136.839C32.2447 129.559 27.9647 122.429 24.1547 115.049C22.5647 111.969 20.6447 111.199 17.4247 111.779C12.6847 112.639 7.88469 113.189 3.10469 113.789C1.83469 113.949 0.12469 114.239 0.00468987 112.329C-0.0953101 110.799 1.42469 110.819 2.57469 110.619C5.83469 110.049 9.08469 109.419 12.3347 108.809L12.3247 108.829Z" fill="black"/>
<path d="M150.745 293.009C151.5 292.6 152.256 292.198 153.006 291.792C153.451 291.552 153.924 291.363 154.416 291.248C163.942 289.015 169.078 291.422 173.313 300.039C173.475 300.368 173.662 300.69 173.899 300.969C174.183 301.303 174.48 301.635 174.645 301.998C175.141 303.086 174.215 304.319 173.995 305.495C172.561 313.142 168.286 317.767 161.795 318.649C154.914 319.582 149.718 316.33 145.977 308.731C145.682 308.132 145.512 307.48 145.448 306.816C145.395 306.258 145.342 305.7 145.288 305.143C145.259 304.841 145.205 304.541 145.139 304.244C144.084 299.444 145.913 295.784 150.745 293.009Z" fill="url(#paint0_linear_322_2131)"/>
<path d="M290.757 281.836C290.756 281.837 290.755 281.836 290.755 281.835C291.096 275.277 293.936 270.229 300.244 267.949C306.575 265.655 311.894 267.839 316.382 272.38C316.679 272.682 316.94 273.023 317.148 273.393C322.707 283.279 316.869 293.375 307.994 295.299C301.042 296.813 295.181 293.367 291.222 285.346C291.191 285.282 291.148 285.224 291.098 285.174C290.1 284.165 290.169 283.035 290.76 281.838C290.761 281.836 290.759 281.835 290.757 281.836V281.836Z" fill="url(#paint1_linear_322_2131)"/>
<path d="M107.955 296.668C109.935 300.468 111.915 304.258 114.025 308.318C112.585 308.748 111.515 309.088 110.435 309.398C108.955 309.828 106.325 309.328 106.615 311.508C106.975 314.158 109.605 312.738 111.145 312.628C115.255 312.338 119.335 311.678 123.425 311.168C122.775 319.438 117.285 325.088 109.615 325.368C103.155 325.608 96.6746 320.598 95.3446 314.348C93.7246 306.738 97.8046 299.888 105.545 297.278C106.325 297.018 107.145 296.868 107.955 296.658V296.668Z" fill="url(#paint2_linear_322_2131)"/>
<path d="M290.755 281.839C290.895 282.979 291.035 284.119 291.165 285.259C287.215 285.909 283.275 286.559 279.325 287.209C278.205 288.229 276.945 288.929 275.425 289.179C268.915 290.249 262.395 291.209 255.875 292.229C254.565 292.439 253.235 292.429 252.035 291.699C237.915 293.799 223.795 295.849 209.685 298.019C197.875 299.829 186.075 301.779 174.275 303.669C174.035 302.619 173.795 301.579 173.555 300.529C196.175 296.919 218.805 293.329 241.425 289.689C244.685 289.169 247.915 288.429 251.155 287.789C255.995 284.759 261.615 285.029 266.945 284.209C270.935 283.599 274.955 281.749 279.105 283.539C282.995 282.969 286.875 282.399 290.765 281.829L290.755 281.839Z" fill="#343D5A"/>
<path d="M252.035 291.699C261.025 289.539 270.195 288.499 279.335 287.209C278.465 294.699 274.075 299.709 267.525 300.669C260.615 301.689 255.205 298.549 252.035 291.699Z" fill="url(#paint3_linear_322_2131)"/>
<path d="M59.3046 28.8183C60.5846 29.5383 61.8846 30.2283 63.1346 30.9883C64.5546 31.8383 66.3046 32.7583 65.2446 34.7683C64.0246 37.0683 62.4946 35.3483 61.0946 34.7383C60.5046 34.4783 59.8946 34.2483 59.2946 33.9983C55.5746 31.8283 51.5446 31.5583 47.3846 31.9683C45.9146 32.1183 44.1946 32.4483 44.0846 30.2383C43.9946 28.2483 45.6346 27.9783 47.1346 27.7883C51.2646 27.2583 55.2946 27.9083 59.3046 28.8183Z" fill="#EA2D45"/>
<path d="M73.4147 18.7891C74.5447 21.1291 75.0047 23.5191 73.6147 25.8791C72.8747 27.1491 71.9747 28.6591 70.1447 27.7991C68.5347 27.0391 69.0847 25.5691 69.6047 24.3491C69.9947 23.4291 70.6147 22.5891 69.5247 21.7591C68.9147 21.2591 68.3747 20.6391 67.6847 20.2691C66.1747 19.4491 65.3947 18.3291 66.3147 16.7391C67.2347 15.1591 68.5347 15.9491 69.6747 16.5691C70.9447 17.2691 72.1647 18.0391 73.4147 18.7891Z" fill="#EA2F46"/>
<path d="M289.405 26.8094C288.765 28.1494 288.965 30.6894 286.835 30.1794C284.515 29.6294 286.085 27.4894 286.225 26.0494C286.365 24.6194 286.725 23.2194 286.995 21.8094C287.395 20.7194 287.845 19.5494 289.325 20.0994C290.455 20.5194 290.285 21.6594 290.165 22.5794C289.985 23.9994 289.655 25.3994 289.395 26.7994L289.405 26.8094Z" fill="#FD9678"/>
<path d="M277.105 10.629C279.495 11.069 282.185 10.479 284.085 12.579C284.305 12.819 284.205 13.809 283.955 13.949C281.545 15.369 279.195 13.499 276.765 13.659C275.655 13.729 274.195 13.179 274.355 11.719C274.535 10.109 275.945 10.389 277.115 10.619L277.105 10.629Z" fill="#FE987A"/>
<path d="M299.245 14.9483C301.185 15.7883 303.875 15.1383 305.885 16.8083C306.335 17.1783 306.385 18.1383 305.635 18.4783C303.155 19.6083 300.845 18.0883 298.445 17.8983C297.275 17.8083 295.985 17.4883 296.435 15.8483C296.785 14.5683 297.965 14.9283 299.255 14.9483H299.245Z" fill="#FE9272"/>
<path d="M294.385 2.40874C293.975 4.83874 294.015 7.50874 292.165 9.56874C291.975 9.77874 291.005 9.68874 290.875 9.45874C289.375 6.83874 291.455 4.46874 291.515 1.92874C291.535 1.02874 292.045 -0.111259 293.285 0.0087407C294.715 0.148741 294.305 1.39874 294.395 2.40874H294.385Z" fill="#FE9273"/>
<path d="M279.095 283.549C269.825 285.289 260.555 286.999 251.145 287.799C251.265 279.559 255.705 273.669 262.575 272.659C270.555 271.479 276.095 275.129 279.095 283.549Z" fill="url(#paint4_linear_322_2131)"/>
<path d="M214.125 52.5684C211.425 51.6084 209.075 50.3984 209.295 47.1084C209.505 44.0984 211.365 41.9684 214.245 42.0184C217.345 42.0784 219.285 44.2484 219.215 47.5684C219.145 50.8484 216.695 51.8284 214.125 52.5684Z" fill="#D2DFB0"/>
<path d="M268.505 55.6689C269.645 55.8589 272.245 55.9089 270.895 57.1889C268.775 59.1989 272.695 62.1789 270.015 62.3889C267.635 62.5789 267.315 58.6489 265.175 57.0889C264.385 56.5089 267.265 56.1089 268.495 55.6689H268.505Z" fill="#444D67"/>
<path d="M174.715 82.0391C175.975 82.1691 177.955 81.8091 177.995 83.3291C178.055 85.5191 175.865 84.6391 174.615 84.7191C173.475 84.7891 171.505 85.4791 171.535 83.5391C171.555 81.9591 173.445 82.1591 174.715 82.0391Z" fill="#5A6279"/>
<path d="M204.445 57.8982C204.655 56.7582 203.975 54.7882 205.935 54.9182C207.665 55.0382 207.225 56.9382 207.245 58.1882C207.255 59.4582 207.485 61.3682 205.755 61.2582C204.115 61.1482 204.585 59.2082 204.455 57.8882L204.445 57.8982Z" fill="#636A80"/>
<path d="M122.105 117.459C121.965 119.029 122.445 120.899 120.775 121.039C118.875 121.199 119.295 119.279 119.325 118.079C119.365 116.889 118.695 114.999 120.495 114.819C122.475 114.629 121.715 116.669 122.105 117.449V117.459Z" fill="#61697F"/>
<path d="M254.854 64.0488C253.944 65.6888 252.674 67.1688 250.794 67.9388C250.394 68.0988 249.265 67.7488 249.595 66.8488C250.305 64.9388 251.725 63.5388 253.595 62.7788C254.095 62.5788 254.875 62.9988 254.845 64.0488H254.854Z" fill="#575F76"/>
<path d="M194.395 78.4485C195.215 78.5285 196.055 78.9685 195.815 79.5685C195.055 81.4685 193.045 81.7785 191.395 82.4285C190.425 82.8085 189.575 81.9085 189.935 81.1485C190.785 79.3385 192.905 79.2685 194.385 78.4385L194.395 78.4485Z" fill="#5C637A"/>
<path d="M157.185 98.6091C156.895 99.8191 157.395 101.799 155.705 101.849C153.855 101.899 154.255 99.9791 154.355 98.7591C154.455 97.5391 154.355 95.7091 156.115 95.7991C157.715 95.8891 157.105 97.5391 157.175 98.6091H157.185Z" fill="#61687E"/>
<path d="M248.165 69.249C248.475 70.139 248.595 70.309 248.565 70.439C248.115 72.559 247.045 74.279 245.145 75.379C245.035 75.439 244.235 74.779 244.265 74.519C244.565 72.159 245.785 70.469 248.165 69.259V69.249Z" fill="#4E5770"/>
<path d="M241.065 84.0288C240.565 83.5188 240.395 83.4188 240.365 83.2888C239.815 80.7688 240.935 78.8988 242.805 77.3988C242.905 77.3188 243.885 77.9288 243.865 78.1688C243.655 80.4588 242.675 82.3388 241.065 84.0288Z" fill="#515972"/>
<path d="M274.595 70.8491C272.775 70.0491 272.105 68.1491 271.255 66.4691C270.855 65.6891 271.345 64.5491 272.315 64.9691C274.195 65.7791 274.875 67.7891 275.705 69.5191C276.025 70.1791 275.565 70.7291 274.585 70.8491H274.595Z" fill="#4D566F"/>
<path d="M115.385 96.9989C115.725 96.9989 115.935 96.9289 116.045 96.9989C118.065 98.3789 118.905 100.299 118.445 102.699C118.415 102.869 117.395 103.129 117.275 102.979C115.865 101.239 114.615 99.4089 115.385 96.9889V96.9989Z" fill="#545C74"/>
<path d="M283.185 78.019C284.605 77.289 285.045 76.859 285.435 76.899C287.215 77.089 288.435 74.629 290.345 75.899C290.535 76.019 290.495 76.889 290.265 77.169C288.725 79.009 286.825 79.429 283.195 78.019H283.185Z" fill="#4F5770"/>
<path d="M267.655 36.0993C267.495 35.3993 267.165 34.8593 267.305 34.4993C267.955 32.8693 268.055 30.8693 269.915 29.9793C270.125 29.8793 271.005 30.5193 270.975 30.6893C270.555 32.8093 270.445 35.1893 267.645 36.0993H267.655Z" fill="#4D556E"/>
<path d="M268.275 41.2685C267.645 42.6985 268.375 44.9585 266.155 44.6885C264.725 44.5085 265.245 42.7985 265.385 41.7485C265.545 40.5185 265.545 38.7185 267.205 38.7585C269.075 38.8085 267.745 40.5885 268.275 41.2685Z" fill="#555D75"/>
<path d="M268.135 51.6087C268.235 52.7587 268.085 54.1787 266.875 53.8487C265.175 53.3787 265.404 51.4687 265.254 50.0087C265.154 48.9887 265.265 47.5687 266.525 47.8887C268.315 48.3487 267.835 50.3087 268.125 51.6087H268.135Z" fill="#575F77"/>
<path d="M280.715 59.3191C279.575 59.6891 279.225 59.9391 278.995 59.8591C277.205 59.2191 275.015 59.3491 273.885 57.4091C273.775 57.2191 274.345 56.2891 274.585 56.2891C276.885 56.3391 278.945 56.9691 280.715 59.3191Z" fill="#4D566F"/>
<path d="M184.765 81.6683C185.685 81.7583 187.235 81.2083 187.075 82.6083C186.815 84.8583 184.495 83.8883 183.125 84.4283C182.235 84.7783 180.715 84.6183 180.865 83.4183C181.155 81.0883 183.405 82.1483 184.765 81.6683Z" fill="#555D75"/>
<path d="M168.935 84.1793C168.225 86.3193 165.995 85.8493 164.555 86.6793C163.935 87.0393 162.575 86.8993 162.745 85.8493C163.125 83.6093 165.445 83.8993 166.985 83.1893C167.875 82.7793 168.515 83.2993 168.935 84.1793Z" fill="#555D75"/>
<path d="M239.345 85.8184C239.795 86.0584 240.005 86.0984 240.035 86.1984C240.885 88.5784 240.275 90.6384 238.585 92.4184C238.495 92.5084 237.485 92.0684 237.445 91.7984C237.125 89.4884 237.735 87.4784 239.335 85.8184H239.345Z" fill="#565E76"/>
<path d="M290.685 72.8991C288.725 71.9591 289.385 69.7191 288.505 68.2091C288.205 67.6891 288.695 66.6791 289.445 66.8491C291.685 67.3591 291.455 69.5491 291.985 71.1491C292.295 72.0891 291.705 72.6891 290.685 72.8891V72.8991Z" fill="#525A72"/>
<path d="M206.195 65.8183C205.535 67.0883 205.865 69.2883 203.985 70.1283C203.215 70.4683 202.485 69.5083 202.815 68.5683C203.385 66.9483 203.035 64.7483 204.985 63.9383C205.815 63.5983 206.345 64.5583 206.195 65.8183Z" fill="#575F76"/>
<path d="M258.595 61.7388C257.515 61.8988 256.595 61.7288 256.655 61.1188C256.865 58.9188 259.035 58.7788 260.485 57.9588C261.145 57.5888 262.345 57.5688 262.195 58.7588C261.925 60.9888 259.345 60.5288 258.585 61.7488L258.595 61.7388Z" fill="#47506A"/>
<path d="M276.015 23.6184C274.905 25.0784 274.355 27.1584 272.285 27.7784C271.435 28.0384 271.075 27.0784 271.325 26.5484C272.145 24.8284 272.895 22.9084 274.905 22.2384C275.545 22.0284 275.945 22.8184 276.015 23.6184Z" fill="#4C556E"/>
<path d="M75.1047 60.6789C78.2447 61.2689 79.2147 63.2589 79.8147 65.5089C79.8447 65.6189 78.8747 66.2289 78.6747 66.1089C76.8047 64.9789 75.4247 63.4489 75.1047 60.6689V60.6789Z" fill="#454E68"/>
<path d="M111.505 89.159C112.985 90.289 114.125 91.809 114.685 93.689C114.915 94.469 114.175 95.069 113.605 94.829C111.695 94.029 110.945 92.159 110.255 90.389C110.065 89.919 110.485 89.129 111.505 89.159Z" fill="#4F5870"/>
<path d="M156.695 93.5083C156.285 90.1583 157.875 88.7583 159.615 87.5083C159.815 87.3583 160.835 87.8583 160.825 87.9783C160.515 90.3783 159.105 91.9583 156.695 93.5083Z" fill="#464E69"/>
<path d="M237.805 94.2285C239.355 97.3285 238.485 99.3885 237.695 102.189C235.595 99.3185 235.795 97.1585 237.805 94.2285Z" fill="#454E68"/>
<path d="M155.145 104.688C156.315 104.898 156.565 104.888 156.605 104.968C157.445 106.818 158.715 108.618 157.595 110.758C157.425 111.088 156.825 111.388 156.375 110.818C154.905 108.988 155.265 106.938 155.145 104.688Z" fill="#47506A"/>
<path d="M118.245 108.239C118.255 107.059 117.915 105.519 119.325 105.889C121.175 106.369 120.795 108.499 121.195 109.969C121.385 110.699 121.405 111.949 120.355 111.809C118.155 111.519 118.865 109.319 118.245 108.239Z" fill="#48516A"/>
<path d="M202.035 71.8184C202.655 75.3384 200.575 76.3784 198.915 77.6384C198.735 77.7784 197.705 77.2584 197.715 77.1284C198.055 74.6284 199.865 73.3384 202.035 71.8184Z" fill="#49526B"/>
<path d="M66.7146 45.0391C68.3446 45.9491 68.7246 47.7791 69.3946 49.3791C69.7746 50.2791 69.2746 51.2591 68.2746 50.8191C66.4846 50.0191 66.2746 47.9591 65.5146 46.3791C65.2746 45.8891 65.7246 45.1091 66.7146 45.0391Z" fill="#464F69"/>
<path d="M103.325 83.2993C104.375 82.8893 104.545 82.7593 104.665 82.7893C106.825 83.3093 108.305 84.6493 109.135 86.6693C109.215 86.8793 108.585 87.6793 108.425 87.6393C106.095 87.0493 104.895 85.2093 103.325 83.2893V83.2993Z" fill="#47506A"/>
<path d="M102.155 81.2685C101.815 81.5285 101.685 81.7086 101.555 81.7186C99.2645 81.8986 97.5345 80.8685 96.2545 79.0685C96.1345 78.8985 96.6945 77.9285 96.8245 77.9485C99.0045 78.3785 101.095 79.0186 102.165 81.2586L102.155 81.2685Z" fill="#434C67"/>
<path d="M282.065 75.689C282.155 76.699 281.595 77.209 280.945 77.049C279.145 76.579 277.795 75.379 276.875 73.789C276.475 73.109 277.045 72.259 277.655 72.409C279.605 72.869 280.835 74.419 282.055 75.699L282.065 75.689Z" fill="#454E68"/>
<path d="M287.875 64.4083C287.435 64.7183 287.285 64.9083 287.175 64.8883C284.795 64.4683 283.155 63.1283 282.355 60.8583C282.305 60.7183 283.105 60.0083 283.295 60.0883C285.355 60.9783 287.155 62.1683 287.875 64.4083Z" fill="#48516B"/>
<path d="M70.1745 53.0488C70.8545 53.1488 71.2845 53.0788 71.4445 53.2488C72.7245 54.6988 74.2345 56.0488 74.2045 58.1888C74.2045 58.3788 73.2445 58.8288 73.0745 58.7088C71.2445 57.3188 69.9645 55.6188 70.1845 53.0488H70.1745Z" fill="#434C66"/>
<path d="M87.6746 73.459C90.8246 74.089 92.5046 75.189 94.7446 77.919C90.9746 77.819 89.1646 76.879 87.6746 73.459Z" fill="#475069"/>
<path d="M81.0146 67.8486C84.1446 68.0986 85.4046 69.7986 86.1546 71.9886C86.1946 72.1086 85.3646 72.7586 85.1846 72.6686C83.2746 71.7486 81.7346 70.4386 81.0146 67.8486Z" fill="#3A445F"/>
<path d="M141.965 260.879C131.385 234.449 120.795 208.039 110.235 181.599C104.465 167.139 98.8845 152.599 92.9345 138.219C91.3945 134.499 91.1645 133.249 95.9145 132.429C161.175 121.089 226.385 109.499 291.615 97.989C292.755 97.789 293.925 97.779 295.085 97.689C296.085 97.399 296.645 97.969 297.025 98.759C297.685 100.149 297.775 101.669 297.715 103.159C297.055 121.469 299.115 139.739 298.685 158.029C298.385 170.699 300.175 183.269 299.795 195.929C299.485 206.249 295.955 211.549 286.075 214.859C240.455 230.139 194.805 245.329 149.155 260.499C146.825 261.279 144.445 262.409 141.965 260.879Z" fill="white"/>
<path d="M102.285 272.559C98.5546 274.119 96.6146 273.109 94.8046 269.159C76.3646 228.879 57.7346 188.699 38.9646 148.579C37.1246 144.649 37.4046 143.409 41.8846 142.669C54.6546 140.579 67.3546 138.039 80.0846 135.669C83.8246 134.359 85.1646 136.749 86.2146 139.629C89.4046 148.379 91.8846 157.359 94.7446 166.209C102.555 190.399 110.495 214.559 117.945 238.869C121.885 251.709 118.085 262.939 107.645 269.969C105.965 271.099 104.115 271.779 102.285 272.559Z" fill="white"/>
<path d="M141.965 260.878C157.235 256.808 172.005 251.218 186.995 246.288C219.675 235.538 252.235 224.448 284.935 213.788C293.515 210.988 298.795 204.838 298.385 195.518C297.585 177.258 297.525 158.948 296.925 140.688C296.495 127.728 296.635 114.768 296.215 101.818C296.165 100.348 296.495 98.7683 295.075 97.6783C303.845 95.2483 305.075 96.1583 305.275 105.018C306.015 136.458 306.765 167.898 307.535 199.338C307.805 210.448 306.205 212.748 295.565 216.268C246.665 232.408 197.735 248.478 148.885 264.778C144.345 266.288 142.465 265.388 141.955 260.878H141.965Z" fill="#EEECF0"/>
<path d="M102.285 272.559C103.915 271.179 105.495 269.729 107.195 268.429C117.475 260.619 120.445 251.529 116.545 239.179C111.145 222.109 105.675 205.069 100.235 188.009C95.1447 172.059 90.0347 156.119 84.9847 140.159C84.1847 137.629 83.3547 135.379 80.0847 135.659C81.3347 134.589 83.0047 135.079 84.3447 134.539C87.5647 133.249 88.9147 134.439 90.1247 137.549C100.715 164.649 111.475 191.669 122.195 218.719C128.105 233.639 134.035 248.549 139.965 263.449C140.735 265.389 141.535 267.069 138.275 267.509C126.265 269.109 114.275 270.859 102.275 272.549L102.285 272.559Z" fill="#EEECF0"/>
<path d="M25.7046 110.918C35.9346 108.768 45.9146 108.308 55.5746 105.928C60.4846 104.718 66.3046 101.248 70.2846 103.658C73.8846 105.848 75.1046 111.998 77.3246 116.428C79.4746 120.718 81.4946 125.088 83.7146 129.348C84.8046 131.428 84.3346 132.298 82.0746 132.718C69.8546 135.018 57.6546 137.428 45.4346 139.698C43.9746 139.968 42.3446 140.768 41.1546 138.578C36.1746 129.428 31.0246 120.388 25.7046 110.908V110.918Z" fill="#EEECF0"/>
<path d="M150.745 293.008C147.605 296.288 145.775 300.188 145.245 304.688C137.865 305.618 130.495 306.538 123.115 307.468C119.555 304.068 116.635 299.988 112.425 297.268C109.095 290.778 105.795 284.268 102.425 277.798C101.335 275.698 101.845 275.048 104.175 274.728C115.035 273.218 125.875 271.548 136.705 269.848C139.175 269.458 140.605 269.958 141.655 272.528C144.495 279.438 147.695 286.198 150.745 293.018V293.008Z" fill="white"/>
<path d="M112.425 297.269C118.105 298.449 121.345 302.199 123.115 307.469C119.175 308.749 116.565 307.579 115.235 303.489C114.535 301.339 113.375 299.339 112.425 297.259V297.269Z" fill="#2E9279"/>
<path fill-rule="evenodd" clip-rule="evenodd" d="M184.645 41.119C184.715 45.929 189.205 50.569 193.785 50.579C198.725 50.599 203.225 46.019 203.235 40.959C203.245 36.099 198.825 31.759 193.965 31.849C189.285 31.939 184.575 36.619 184.645 41.119ZM199.175 41.1191C199.045 37.8091 196.855 36.2291 193.805 35.7791C190.345 36.2491 188.545 38.4291 188.635 41.5091C188.725 44.4691 190.885 46.5791 193.845 46.4691C196.855 46.3591 199.315 44.5991 199.175 41.1191Z" fill="#BBCD8C"/>
<path d="M188.705 141.809C193.785 167.279 198.855 192.759 203.935 218.229L202.105 218.599C197.005 193.149 191.895 167.699 186.795 142.249C187.435 142.099 188.075 141.949 188.705 141.799V141.809Z" fill="#434D67"/>
<path d="M222.865 136.879C227.275 161.009 231.685 185.139 236.105 209.269L234.255 209.609C229.835 185.499 225.405 161.389 220.985 137.269L222.865 136.869V136.879Z" fill="#434C67"/>
<path d="M261.445 177.719C259.355 161.649 257.275 145.579 255.185 129.509L257.065 129.249C259.175 145.339 261.275 161.429 263.385 177.519C262.735 177.579 262.085 177.649 261.445 177.709V177.719Z" fill="#48516B"/>
<path d="M170.765 229.079C166.465 215.739 162.155 202.399 157.855 189.069C158.455 188.869 159.045 188.679 159.645 188.479C163.965 201.809 168.295 215.129 172.615 228.459L170.765 229.079Z" fill="#48516B"/>
<path d="M147.065 149.579C150.005 158.769 153.495 167.799 155.655 177.229C155.165 177.379 154.685 177.539 154.195 177.689L145.245 150.089L147.055 149.579H147.065Z" fill="#4A536C"/>
<path d="M264.575 186.688C265.125 191.178 265.665 195.658 266.215 200.148L264.875 200.308C263.025 196.008 263.135 191.428 262.815 186.908C263.405 186.838 263.985 186.758 264.575 186.688Z" fill="#5E667C"/>
<defs>
<linearGradient id="paint0_linear_322_2131" x1="144.85" y1="304.634" x2="174.777" y2="304.634" gradientUnits="userSpaceOnUse">
<stop stop-color="#173F35"/>
<stop offset="1" stop-color="#2F967C"/>
</linearGradient>
<linearGradient id="paint1_linear_322_2131" x1="290.329" y1="281.338" x2="319.323" y2="281.338" gradientUnits="userSpaceOnUse">
<stop stop-color="#173F35"/>
<stop offset="1" stop-color="#2F967C"/>
</linearGradient>
<linearGradient id="paint2_linear_322_2131" x1="94.9932" y1="311.017" x2="123.425" y2="311.017" gradientUnits="userSpaceOnUse">
<stop stop-color="#173F35"/>
<stop offset="1" stop-color="#2F967C"/>
</linearGradient>
<linearGradient id="paint3_linear_322_2131" x1="252.035" y1="294.033" x2="279.335" y2="294.033" gradientUnits="userSpaceOnUse">
<stop stop-color="#173F35"/>
<stop offset="1" stop-color="#2F967C"/>
</linearGradient>
<linearGradient id="paint4_linear_322_2131" x1="251.145" y1="280.121" x2="279.095" y2="280.121" gradientUnits="userSpaceOnUse">
<stop stop-color="#173F35"/>
<stop offset="1" stop-color="#2F967C"/>
</linearGradient>
</defs>
</svg>
