<svg width="184" height="213" viewBox="0 0 184 213" fill="none" xmlns="http://www.w3.org/2000/svg">
<path d="M97.5007 1.49609H99.9115C104.417 1.49609 108.738 3.30012 111.924 6.51131C115.11 9.7225 116.899 14.0778 116.899 18.6191V35.1502H80.5127V18.6191C80.5127 14.0778 82.3025 9.7225 85.4884 6.51131C88.6742 3.30012 92.9952 1.49609 97.5007 1.49609V1.49609Z" stroke="#070707" stroke-width="2" stroke-linecap="round" stroke-linejoin="round"/>
<path d="M109.778 1.49609H112.191C116.696 1.49609 121.017 3.30012 124.203 6.51131C127.389 9.7225 129.179 14.0778 129.179 18.6191V35.1502H92.7896V18.6191C92.7896 16.3705 93.229 14.1439 94.0827 12.0664C94.9364 9.98896 96.1877 8.10133 97.7652 6.51131C99.3427 4.92129 101.215 3.66002 103.277 2.79951C105.338 1.93899 107.547 1.49609 109.778 1.49609Z" stroke="#070707" stroke-width="2" stroke-linecap="round" stroke-linejoin="round"/>
<path d="M183.862 213.541H135.124L155.784 36.5879H163.198L183.862 213.541Z" fill="#345172"/>
<path d="M155.784 35.1475L135.124 212.101H21.865L42.5281 35.1475H155.784Z" stroke="#070707" stroke-width="2" stroke-linecap="round" stroke-linejoin="round"/>
<path d="M141.33 89.1718H124.74L126.853 64.8159C127.253 60.1991 131.292 56.4561 135.873 56.4561C140.455 56.4561 143.843 60.1991 143.443 64.8159L141.33 89.1718Z" fill="#E6E8EC"/>
<path d="M139.871 87.7001H123.28L125.394 63.3443C125.796 58.7274 129.833 54.9844 134.416 54.9844C138.996 54.9844 142.387 58.7274 141.984 63.3443L139.871 87.7001Z" stroke="#070707" stroke-width="2" stroke-linecap="round" stroke-linejoin="round"/>
<path d="M135.004 63.0282C135.75 62.3087 135.824 61.167 135.17 60.4783C134.516 59.7896 133.381 59.8145 132.636 60.5341C131.89 61.2536 131.816 62.3952 132.47 63.084C133.124 63.7727 134.259 63.7477 135.004 63.0282Z" stroke="#070707" stroke-width="2" stroke-linecap="round" stroke-linejoin="round"/>
<path d="M133.882 61.5304L136.247 33.889C136.326 32.966 136.747 32.1067 137.424 31.4807C138.102 30.8547 138.987 30.5076 139.907 30.5078C140.882 30.5078 141.817 30.898 142.506 31.5926C143.196 32.2872 143.584 33.2294 143.584 34.2121" stroke="#070707" stroke-width="2" stroke-linecap="round" stroke-linejoin="round"/>
<path d="M132.787 78.9011C133.209 78.8335 133.601 78.6379 133.91 78.3401C134.177 78.0774 134.342 77.7271 134.375 77.3527C134.402 77.1853 134.39 77.0138 134.34 76.8518C134.291 76.6898 134.204 76.5418 134.087 76.4195C133.79 76.1598 133.44 75.9684 133.062 75.8585L132.195 75.5923C131.679 75.4544 131.178 75.262 130.702 75.0184C130.313 74.8151 129.991 74.5026 129.774 74.1188C129.536 73.6579 129.447 73.134 129.517 72.6195C129.563 71.8704 129.895 71.1683 130.443 70.6601C131.075 70.1167 131.87 69.8042 132.7 69.7734H133.574C134.001 69.8081 134.419 69.911 134.813 70.0785C135.154 70.2317 135.449 70.4702 135.672 70.7713C135.849 70.9907 135.99 71.2378 136.088 71.5028C136.175 71.7209 136.213 71.9558 136.198 72.1904C136.171 72.4227 136.061 72.6371 135.889 72.794C135.717 72.9508 135.494 73.0395 135.262 73.0435C134.811 73.0435 134.54 72.7979 134.452 72.3067C134.414 72.0382 134.3 71.7864 134.123 71.5818C133.947 71.3772 133.715 71.2286 133.457 71.1538L132.582 71.1254C132.241 71.214 131.921 71.3704 131.641 71.5855C131.518 71.693 131.42 71.8251 131.351 71.9734C131.282 72.1216 131.244 72.2827 131.241 72.4463C131.216 72.5934 131.223 72.7443 131.264 72.8879C131.304 73.0316 131.376 73.1642 131.474 73.2761C131.727 73.5083 132.026 73.6844 132.351 73.7931L133.205 74.0516C133.759 74.2093 134.203 74.3515 134.529 74.4807C134.849 74.6087 135.14 74.8003 135.385 75.0443C135.648 75.2975 135.846 75.6104 135.965 75.9568C136.09 76.3306 136.134 76.7275 136.093 77.12C136.049 77.6476 135.879 78.1567 135.598 78.6038C135.302 79.0734 134.895 79.4616 134.413 79.7334C133.876 80.0337 133.28 80.2103 132.667 80.2504H131.79C131.313 80.2063 130.847 80.0777 130.415 79.8704C130.055 79.6952 129.734 79.4481 129.471 79.1441C129.244 78.8795 129.07 78.5731 128.958 78.2419C128.86 77.9459 128.821 77.6329 128.845 77.3216C128.877 77.0826 128.994 76.8633 129.173 76.7038C129.353 76.5442 129.583 76.4552 129.822 76.4531C130.004 76.4462 130.184 76.4968 130.335 76.5978C130.469 76.6977 130.56 76.8443 130.592 77.0088C130.662 77.3037 130.747 77.5945 130.848 77.88C130.929 78.09 131.055 78.2791 131.218 78.4332C131.42 78.6153 131.663 78.7457 131.925 78.8132L132.787 78.9011Z" fill="#070707"/>
<path d="M132.149 81.3025H132.118C132.07 81.2986 132.023 81.2852 131.98 81.263C131.938 81.2408 131.9 81.2104 131.869 81.1734C131.838 81.1364 131.814 81.0936 131.8 81.0474C131.785 81.0012 131.78 80.9526 131.784 80.9044L132.831 68.8712C132.839 68.7742 132.885 68.6844 132.959 68.6217C133.033 68.5589 133.128 68.5282 133.224 68.5365C133.321 68.5447 133.41 68.5911 133.472 68.6655C133.534 68.74 133.565 68.8363 133.557 68.9333L132.513 80.9664C132.504 81.0581 132.462 81.1433 132.395 81.2055C132.328 81.2676 132.24 81.3022 132.149 81.3025Z" fill="#070707"/>
<path d="M56.3873 59.5811H58.1364C61.4053 59.5811 64.5404 60.89 66.8519 63.2198C69.1633 65.5497 70.4619 68.7096 70.4619 72.0045V83.9989H44.0618V72.0045C44.0618 68.7096 45.3603 65.5497 47.6718 63.2198C49.9833 60.89 53.1184 59.5811 56.3873 59.5811V59.5811Z" stroke="#070707" stroke-width="2" stroke-linecap="round" stroke-linejoin="round"/>
<path d="M65.2943 59.5811H67.0536C70.3203 59.5852 73.4518 60.8962 75.7601 63.2262C78.0683 65.5562 79.3645 68.7145 79.3638 72.0071V84.0015H52.9688V72.0071C52.9684 70.3754 53.287 68.7597 53.9062 67.2521C54.5255 65.7445 55.4334 64.3746 56.5779 63.2207C57.7225 62.0668 59.0814 61.1515 60.5769 60.527C62.0725 59.9025 63.6755 59.5811 65.2943 59.5811V59.5811Z" stroke="#070707" stroke-width="2" stroke-linecap="round" stroke-linejoin="round"/>
<path d="M119.049 212.396H83.6851L98.6778 83.999H104.056L119.049 212.396Z" fill="#F4F1ED" stroke="#070707" stroke-width="2" stroke-linecap="round" stroke-linejoin="round"/>
<path d="M98.6778 83.999L91.1815 148.197L83.6851 212.396H1.50708L16.4998 83.999H98.6778Z" fill="#EFAF00" stroke="black" stroke-width="2" stroke-linecap="round" stroke-linejoin="round"/>
</svg>
