<svg width="24" height="14" viewBox="0 0 24 14" fill="none" xmlns="http://www.w3.org/2000/svg">
<path fill-rule="evenodd" clip-rule="evenodd" d="M0.267802 6.8044C3.04203 3.48357 7.15394 0.625 11.6516 0.625C16.1491 0.625 20.2611 3.48357 23.0353 6.8044L23.3031 7.1249L23.0353 7.4455C20.2611 10.7662 16.1491 13.625 11.6516 13.625C7.154 13.625 3.04198 10.7662 0.267802 7.4455L0 7.1249L0.267802 6.8044ZM6.15128 7.125C6.15128 4.08892 8.61131 1.6274 11.6469 1.625H11.6513C14.6889 1.625 17.1513 4.08743 17.1513 7.125C17.1513 10.1626 14.6889 12.625 11.6513 12.625C8.6137 12.625 6.15128 10.1626 6.15128 7.125ZM14.6513 7.125C14.6513 8.7819 13.3082 10.125 11.6513 10.125C9.99445 10.125 8.65127 8.7819 8.65127 7.125C8.65127 5.4681 9.99445 4.125 11.6513 4.125C13.3082 4.125 14.6513 5.4681 14.6513 7.125ZM11.6523 6.125C11.1 6.125 10.6523 6.5727 10.6523 7.125C10.6523 7.6773 11.1 8.125 11.6523 8.125C12.2046 8.125 12.6523 7.6773 12.6523 7.125C12.6523 6.5727 12.2046 6.125 11.6523 6.125Z" fill="#173F35"/>
</svg>
