<svg width="21" height="12" viewBox="0 0 21 12" fill="none" xmlns="http://www.w3.org/2000/svg">
<path fill-rule="evenodd" clip-rule="evenodd" d="M0.408203 5.9973V10.4399C0.413286 10.8096 0.605579 11.1516 0.918907 11.3481C1.23223 11.5446 1.62382 11.5687 1.95891 11.4122L3.233 10.7751L5.31178 11.4709C5.6435 11.5811 6.00797 11.5255 6.29175 11.3214C6.57553 11.1173 6.74415 10.7894 6.74513 10.4399V6.50023H9.59507C9.78611 6.50229 9.95158 6.63329 9.99742 6.81875C10.6452 9.47003 13.2065 11.1909 15.9059 10.7885C18.6054 10.3861 20.5534 7.99298 20.3997 5.26805C20.2416 2.29707 17.7227 0.00619335 14.7501 0.129773C13.7349 0.199723 12.7621 0.563804 11.9505 1.17755C11.4667 1.53864 11.3672 2.22353 11.7283 2.70729C12.0894 3.19106 12.7743 3.29051 13.2581 2.92942C14.41 2.06549 16.0051 2.10805 17.1094 3.03219C18.2136 3.95633 18.5365 5.51895 17.8891 6.80511C17.2416 8.09126 15.7941 8.76262 14.3941 8.4261C12.994 8.08958 12.0097 6.83369 12.0175 5.39378C11.9948 4.78795 11.4921 4.31132 10.8859 4.32086H2.08464C1.15877 4.32086 0.408203 5.07143 0.408203 5.9973Z" fill="#173F35"/>
</svg>
