<svg width="127" height="15" viewBox="0 0 127 15" fill="none" xmlns="http://www.w3.org/2000/svg">
<path d="M5.9402 14.9996L0.700195 0.599609H3.0002L6.8202 11.0796L10.6402 0.599609H12.9202L16.7602 11.0796L20.5602 0.599609H22.8802L17.6402 14.9996H15.8602L11.7802 3.79961L7.7002 14.9996H5.9402Z" fill="#173F35"/>
<path d="M24.7344 14.9996V0.599609H37.9344V2.75961H26.9144V6.71961H35.7744V8.87961H26.9144V12.8396H37.9344V14.9996H24.7344Z" fill="#173F35"/>
<path d="M40.0669 14.9996V0.599609H51.2669C51.7336 0.599609 52.1669 0.719609 52.5669 0.95961C52.9669 1.18628 53.2802 1.49961 53.5069 1.89961C53.7469 2.28628 53.8669 2.71961 53.8669 3.19961V6.13961C53.8669 6.31294 53.8469 6.48628 53.8069 6.65961C53.7802 6.83294 53.7269 6.99294 53.6469 7.13961C53.9136 7.51294 54.1136 7.86628 54.2469 8.19961C54.3936 8.51961 54.4669 8.84628 54.4669 9.17961V12.3996C54.4669 12.8796 54.3469 13.3196 54.1069 13.7196C53.8802 14.1063 53.5669 14.4196 53.1669 14.6596C52.7669 14.8863 52.3269 14.9996 51.8469 14.9996H40.0669ZM42.7269 12.8396H51.8069C51.9402 12.8396 52.0536 12.7929 52.1469 12.6996C52.2402 12.5929 52.2869 12.4729 52.2869 12.3396V9.23961C52.2869 9.10628 52.2402 8.99294 52.1469 8.89961C52.0536 8.79294 51.9402 8.73961 51.8069 8.73961H42.7269C42.5936 8.73961 42.4736 8.79294 42.3669 8.89961C42.2736 8.99294 42.2269 9.10628 42.2269 9.23961V12.3396C42.2269 12.4729 42.2736 12.5929 42.3669 12.6996C42.4736 12.7929 42.5936 12.8396 42.7269 12.8396ZM42.7269 6.57961H51.2069C51.3403 6.57961 51.4536 6.53294 51.5469 6.43961C51.6402 6.33294 51.6869 6.21294 51.6869 6.07961V3.25961C51.6869 3.12628 51.6402 3.01294 51.5469 2.91961C51.4536 2.81294 51.3403 2.75961 51.2069 2.75961H42.7269C42.5936 2.75961 42.4736 2.81294 42.3669 2.91961C42.2736 3.01294 42.2269 3.12628 42.2269 3.25961V6.07961C42.2269 6.21294 42.2736 6.33294 42.3669 6.43961C42.4736 6.53294 42.5936 6.57961 42.7269 6.57961Z" fill="#173F35"/>
<path d="M64.9683 14.9996C64.5017 14.9996 64.0683 14.8863 63.6683 14.6596C63.2683 14.4196 62.9483 14.1063 62.7083 13.7196C62.4817 13.3196 62.3683 12.8796 62.3683 12.3996V11.5596H64.5283V12.3396C64.5283 12.4729 64.575 12.5929 64.6683 12.6996C64.775 12.7929 64.895 12.8396 65.0283 12.8396H74.1083C74.2417 12.8396 74.355 12.7929 74.4483 12.6996C74.5417 12.5929 74.5883 12.4729 74.5883 12.3396V9.37961C74.5883 9.23294 74.5417 9.11294 74.4483 9.01961C74.355 8.92628 74.2417 8.87961 74.1083 8.87961H64.9683C64.5017 8.87961 64.0683 8.76628 63.6683 8.53961C63.2683 8.29961 62.9483 7.98628 62.7083 7.59961C62.4817 7.19961 62.3683 6.75961 62.3683 6.27961V3.19961C62.3683 2.71961 62.4817 2.28628 62.7083 1.89961C62.9483 1.49961 63.2683 1.18628 63.6683 0.95961C64.0683 0.719609 64.5017 0.599609 64.9683 0.599609H74.1683C74.635 0.599609 75.0683 0.719609 75.4683 0.95961C75.8683 1.18628 76.1817 1.49961 76.4083 1.89961C76.6483 2.28628 76.7683 2.71961 76.7683 3.19961V4.03961H74.5883V3.25961C74.5883 3.12628 74.5417 3.01294 74.4483 2.91961C74.355 2.81294 74.2417 2.75961 74.1083 2.75961H65.0283C64.895 2.75961 64.775 2.81294 64.6683 2.91961C64.575 3.01294 64.5283 3.12628 64.5283 3.25961V6.21961C64.5283 6.36628 64.575 6.48628 64.6683 6.57961C64.775 6.67294 64.895 6.71961 65.0283 6.71961H74.1683C74.635 6.71961 75.0683 6.83961 75.4683 7.07961C75.8683 7.30628 76.1817 7.61961 76.4083 8.01961C76.6483 8.40628 76.7683 8.83961 76.7683 9.31961V12.3996C76.7683 12.8796 76.6483 13.3196 76.4083 13.7196C76.1817 14.1063 75.8683 14.4196 75.4683 14.6596C75.0683 14.8863 74.635 14.9996 74.1683 14.9996H64.9683Z" fill="#173F35"/>
<path d="M78.9527 14.9996V0.599609H81.1127V6.71961H91.5127V0.599609H93.6927V14.9996H91.5127V8.87961H81.1127V14.9996H78.9527Z" fill="#173F35"/>
<path d="M98.5044 14.9996C98.0244 14.9996 97.5844 14.8863 97.1844 14.6596C96.7978 14.4196 96.4844 14.1063 96.2444 13.7196C96.0177 13.3196 95.9044 12.8796 95.9044 12.3996V3.19961C95.9044 2.71961 96.0177 2.28628 96.2444 1.89961C96.4844 1.49961 96.7978 1.18628 97.1844 0.95961C97.5844 0.719609 98.0244 0.599609 98.5044 0.599609H107.704C108.171 0.599609 108.604 0.719609 109.004 0.95961C109.404 1.18628 109.718 1.49961 109.944 1.89961C110.184 2.28628 110.304 2.71961 110.304 3.19961V12.3996C110.304 12.8796 110.184 13.3196 109.944 13.7196C109.718 14.1063 109.404 14.4196 109.004 14.6596C108.604 14.8863 108.171 14.9996 107.704 14.9996H98.5044ZM98.5644 12.8396H107.644C107.778 12.8396 107.891 12.7929 107.984 12.6996C108.078 12.5929 108.124 12.4729 108.124 12.3396V3.25961C108.124 3.12628 108.078 3.01294 107.984 2.91961C107.891 2.81294 107.778 2.75961 107.644 2.75961H98.5644C98.4311 2.75961 98.3111 2.81294 98.2044 2.91961C98.1111 3.01294 98.0644 3.12628 98.0644 3.25961V12.3396C98.0644 12.4729 98.1111 12.5929 98.2044 12.6996C98.3111 12.7929 98.4311 12.8396 98.5644 12.8396Z" fill="#173F35"/>
<path d="M112.507 14.9996V0.619609H124.287C124.767 0.619609 125.207 0.739609 125.607 0.979609C126.007 1.21961 126.32 1.53961 126.547 1.93961C126.787 2.32628 126.907 2.75294 126.907 3.21961V7.25961C126.907 7.73961 126.787 8.17961 126.547 8.57961C126.32 8.96628 126.007 9.27961 125.607 9.51961C125.207 9.74628 124.767 9.85961 124.287 9.85961L114.667 9.87961V14.9996H112.507ZM115.167 7.67961H124.247C124.38 7.67961 124.494 7.63294 124.587 7.53961C124.68 7.44628 124.727 7.33294 124.727 7.19961V3.27961C124.727 3.14628 124.68 3.03294 124.587 2.93961C124.494 2.83294 124.38 2.77961 124.247 2.77961H115.167C115.034 2.77961 114.914 2.83294 114.807 2.93961C114.714 3.03294 114.667 3.14628 114.667 3.27961V7.19961C114.667 7.33294 114.714 7.44628 114.807 7.53961C114.914 7.63294 115.034 7.67961 115.167 7.67961Z" fill="#173F35"/>
</svg>
