<svg width="25" height="24" viewBox="0 0 25 24" fill="none" xmlns="http://www.w3.org/2000/svg">
<path d="M12.8731 12.7805C12.8031 12.7705 12.7131 12.7705 12.6331 12.7805C10.8731 12.7205 9.47314 11.2805 9.47314 9.51047C9.47314 7.70047 10.9331 6.23047 12.7531 6.23047C14.5631 6.23047 16.0331 7.70047 16.0331 9.51047C16.0231 11.2805 14.6331 12.7205 12.8731 12.7805Z" stroke="#173F35" stroke-linecap="round" stroke-linejoin="round"/>
<path d="M19.4927 19.3796C17.7127 21.0096 15.3527 21.9996 12.7527 21.9996C10.1527 21.9996 7.7927 21.0096 6.0127 19.3796C6.1127 18.4396 6.7127 17.5196 7.7827 16.7996C10.5227 14.9796 15.0027 14.9796 17.7227 16.7996C18.7927 17.5196 19.3927 18.4396 19.4927 19.3796Z" stroke="#173F35" stroke-linecap="round" stroke-linejoin="round"/>
<path d="M12.7529 22C18.2758 22 22.7529 17.5228 22.7529 12C22.7529 6.47715 18.2758 2 12.7529 2C7.23008 2 2.75293 6.47715 2.75293 12C2.75293 17.5228 7.23008 22 12.7529 22Z" stroke="#173F35" stroke-linecap="round" stroke-linejoin="round"/>
</svg>
