<svg width="10" height="6" viewBox="0 0 10 6" fill="none" xmlns="http://www.w3.org/2000/svg">
<path d="M7.79321 0.792787L5.00021 3.58579L2.20721 0.792787C2.01969 0.605316 1.76538 0.5 1.50021 0.5C1.23505 0.5 0.980742 0.605316 0.793214 0.792787C0.605742 0.980314 0.500427 1.23462 0.500427 1.49979C0.500427 1.76495 0.605742 2.01926 0.793214 2.20679L4.29321 5.70679C4.48074 5.89426 4.73505 5.99957 5.00021 5.99957C5.26538 5.99957 5.51969 5.89426 5.70721 5.70679L9.20721 2.20679C9.39468 2.01926 9.5 1.76495 9.5 1.49979C9.5 1.23462 9.39468 0.980314 9.20721 0.792787C9.01969 0.605316 8.76538 0.5 8.50021 0.5C8.23505 0.5 7.98074 0.605316 7.79321 0.792787Z" fill="#173F35"/>
</svg>
