<svg width="205" height="199" viewBox="0 0 205 199" fill="none" xmlns="http://www.w3.org/2000/svg">
<path d="M95.6488 194.905C95.5096 198.909 95.5097 198.884 91.4372 198.884C62.8316 198.884 34.2158 198.833 5.62055 198.884C-0.0500373 198.884 -0.410868 198.142 0.233517 193.127C0.950073 187.588 1.29538 182.013 2.07895 176.474C3.29039 167.917 4.18232 159.303 4.88341 150.69C5.5381 142.63 6.4969 134.586 7.54339 126.588C8.74967 117.349 9.38375 108.05 10.7705 98.8216C12.085 90.0863 12.6468 81.2442 13.5284 72.4479C14.0851 66.8581 15.276 61.3496 15.2657 55.6785C15.3412 54.2577 15.6911 52.8641 16.2967 51.5726C16.8586 50.2158 18.0752 49.8296 19.6114 49.8448C26.0552 49.9312 32.4991 49.8448 38.9378 49.9262C40.8709 49.9566 41.4483 49.3418 41.4071 47.4565C41.2834 42.0547 41.3091 36.6478 41.3606 31.241C41.4844 18.0948 50.2326 6.3918 62.9502 1.96061C68.1516 0.146471 73.415 -0.554812 78.5185 0.481841C85.8387 1.97076 92.4991 5.20273 97.5357 11.0771C102.32 16.6669 105.005 23.0392 105.315 30.2755C105.552 35.8348 105.428 41.4195 105.315 46.994C105.268 49.1639 106 49.9617 108.263 49.9262C116.248 49.8194 124.244 49.8855 132.229 49.8448C136.121 49.8448 137.493 51.0339 137.647 54.7892C137.962 62.4117 137.962 62.4117 145.674 62.4422C155.297 62.4422 164.919 62.4422 174.542 62.4422C178.285 62.4422 178.945 63.1689 178.939 66.9394C178.939 74.877 178.986 82.8195 178.883 90.752C178.857 92.7846 179.362 93.5418 181.594 93.4859C187.863 93.3284 194.137 93.4198 200.41 93.4351C203.545 93.4351 204.349 94.1516 204.591 97.2412C204.72 98.8369 204.617 100.453 204.617 102.054C204.617 132.711 204.674 163.368 204.591 194.031C204.591 199.174 203.405 198.838 199.828 198.838C168.815 198.801 137.802 198.801 106.789 198.838C103.15 198.838 102.696 198.427 102.149 194.88C101.16 193.838 101.443 192.517 101.33 191.277C100.912 186.703 101.964 182.221 101.959 177.663C101.959 151.178 101.892 124.687 101.959 98.1966C101.959 93.6231 102.856 92.7288 107.516 92.6881C112.836 92.6474 118.161 92.6881 123.497 92.6881C124.476 92.6881 125.6 92.993 126.301 91.936C126.852 90.3709 126.621 88.7498 126.631 87.1593C126.631 80.8276 126.682 74.4958 126.631 68.1641C126.605 65.5369 127.27 63.3416 129.621 61.8476C131.054 60.9329 130.853 59.5305 130.595 58.1991C130.312 56.766 129.049 56.7762 127.94 56.7609C121.584 56.6796 115.233 56.705 108.867 56.7609C108.119 56.7609 107.181 56.6441 106.774 57.4216C106.325 58.2854 107.17 58.8088 107.691 59.3068C108.202 59.8208 108.597 60.4346 108.852 61.1086C109.107 61.7826 109.215 62.5018 109.171 63.2197C109.171 66.6803 109.243 70.146 109.171 73.6015C109.088 76.9045 107.33 78.7695 103.918 78.9423C99.5409 79.1608 95.154 79.1455 90.7824 78.9423C87.2512 78.7847 85.5087 76.9096 85.4366 73.4287C85.3696 70.1409 85.4366 66.8226 85.4366 63.5551C85.4366 61.7917 85.7511 60.2012 87.2924 59.0578C87.7616 58.7123 88.3234 58.2854 88.0451 57.5943C87.7564 56.8168 86.978 56.8219 86.3079 56.7762C84.4263 56.6542 82.5344 56.7254 80.6373 56.7203C74.544 56.7203 68.449 56.7203 62.3522 56.7203C61.4891 56.6615 60.6218 56.7197 59.7747 56.8931C58.5375 57.2234 58.0941 57.9704 59.2024 58.8241C61.1614 60.3486 61.2954 62.3812 61.2645 64.5206C61.2284 67.473 61.3005 70.4306 61.2387 73.383C61.1665 76.6911 59.6922 78.5205 56.3981 78.8254C51.5946 79.1933 46.7701 79.212 41.9639 78.8813C40.7857 78.8089 39.6781 78.3027 38.8607 77.4631C38.0434 76.6235 37.576 75.5118 37.5511 74.3484C37.3243 70.2831 37.3913 66.2535 37.5511 62.2034C37.5653 61.609 37.7166 61.0255 37.9935 60.4972C38.2704 59.969 38.6656 59.5098 39.1492 59.1544C39.773 58.7326 40.6081 58.4125 40.2575 57.4266C39.974 56.6136 39.1956 56.6644 38.5203 56.6593C33.9684 56.6593 29.4163 56.6034 24.8644 56.7508C23.1013 56.8118 22.1168 57.5638 22.1323 59.3576C22.1787 66.9801 20.5239 74.4044 19.797 81.9303C19.1114 89.009 18.2917 96.1182 17.2195 103.182C16.4868 107.578 16.0407 112.017 15.8843 116.47C15.8173 120.535 14.9925 124.494 14.544 128.498C12.9511 142.823 11.3014 157.149 9.68785 171.474C9.0744 176.926 8.53317 182.389 7.81146 187.832C7.29595 191.572 7.63097 191.943 11.4818 191.943C37.7624 191.943 64.0533 191.943 90.3545 191.943C91.5586 191.887 92.7653 191.926 93.9631 192.059C95.6694 192.354 96.453 193.182 95.6488 194.905Z" fill="#173F35"/>
<path d="M95.6489 194.906C95.8396 193.295 95.2056 192.731 93.4735 192.736C65.4711 192.787 37.4635 192.736 9.44568 192.817C7.09496 192.817 6.50216 192.197 6.77538 189.89C8.57451 174.823 10.3221 159.746 11.9305 144.664C12.7243 137.133 13.6316 129.612 14.3275 122.066C14.9049 115.749 15.7452 109.443 16.4205 103.126C17.0443 97.257 17.8175 91.3979 18.4258 85.5235C19.0341 79.6492 19.8383 73.7087 20.4878 67.7937C20.8384 64.638 21.2766 61.4925 21.4106 58.3165C21.4828 56.5785 22.3127 55.989 23.9881 55.9941C29.0556 55.9941 34.123 55.9586 39.1905 55.9129C40.3607 55.9129 41.4691 55.8265 41.4639 57.5034C41.4639 58.9212 41.0618 59.8155 39.4019 59.6275C39.0978 58.1894 38.2677 57.4983 36.7212 57.7372C34.5663 58.0675 32.5455 57.0359 30.5351 57.229C31.3341 57.3509 32.4631 56.9647 33.1745 57.8693C33.9633 58.8856 33.6591 59.9476 33.3034 61.0097C33.0958 61.5649 32.9708 62.1469 32.9323 62.7375C32.5972 72.2706 30.6279 81.6411 29.9629 91.1285C29.0556 104.097 26.7049 116.908 26.0039 129.901C25.6791 135.918 24.0912 141.853 24.1015 147.936C24.1015 153.744 25.9935 159.07 28.5659 164.162C33.8911 174.706 43.2837 179.742 54.4754 182.222C55.6685 182.406 56.8786 182.461 58.0839 182.385C71.6521 182.425 85.2202 182.288 98.809 182.486C100.242 182.486 100.624 182.024 100.644 180.794C100.675 178.929 100.423 177.089 100.366 175.23C100.175 169.132 100.923 163.09 100.85 157.022C100.768 149.938 100.129 142.86 100.412 135.771C100.598 131.136 101.325 126.492 100.814 121.872C100.299 117.146 100.505 112.431 100.381 107.71C100.324 104.08 100.511 100.451 100.943 96.8454C101.252 94.0047 102.634 92.1754 105.583 91.9366C112.429 91.3877 119.306 91.6215 126.167 91.8247C126.686 91.8863 127.168 92.1212 127.533 92.4904C127.533 94.0962 126.291 93.5627 125.471 93.5677C119.203 93.5982 112.934 93.5677 106.671 93.5677C103.062 93.5677 102.546 94.1165 102.546 97.7347C102.546 124.904 102.546 152.076 102.546 179.249C102.546 184.478 102.32 189.702 102.201 194.931C99.9946 196.547 97.8192 196.079 95.6489 194.906Z" fill="#CCA610"/>
<path d="M127.512 92.4593H107.676C102.902 92.4593 102.005 93.5721 101.557 98.1761C100.99 104.139 100.907 110.138 101.309 116.114C102.01 126.242 100.794 136.324 101.206 146.426C101.35 150.293 101.721 154.176 101.551 158.033C101.263 164.182 101.196 170.33 101.216 176.479C101.216 178.811 101.861 181.149 100.917 183.634C99.9275 182.973 98.6955 183.166 97.4892 183.166C83.9262 183.166 70.3529 183.38 56.7951 183.055C50.2017 182.897 44.1084 180.514 38.7523 176.55C37.0115 175.373 35.3576 174.076 33.8034 172.668C29.5865 168.541 27.2668 163.521 25.2254 158.089C23.3124 153.222 22.7397 147.943 23.5654 142.788C24.2253 138.941 23.782 134.982 25.112 131.197C25.9729 128.773 25.6274 126.029 25.7975 123.452C26.3903 114.488 28.2359 105.666 28.7823 96.7329C29.2978 88.6023 30.4165 80.5174 31.3599 72.4631C31.8754 68.2707 30.9733 63.7887 32.9786 59.7183C33.5199 58.6207 32.9374 57.5281 31.4321 57.4773C30.5042 57.4418 29.5762 57.4773 28.6431 56.9692C32.1434 56.9692 35.6489 56.9692 39.1492 56.9692C39.7163 56.9692 40.438 56.7811 40.6958 57.518C40.9896 58.3513 40.1183 58.3717 39.7369 58.7477C39.5307 58.951 39.5152 59.3423 39.4121 59.6472C38.2729 60.821 38.1697 62.249 38.1955 63.7786C38.2625 67.2392 38.1955 70.6997 38.1955 74.1603C38.1955 76.4877 39.7421 78.0325 42.1134 78.0528C46.8355 78.0884 51.5627 78.0986 56.2796 78.0528C59.2489 78.0122 60.4035 76.7875 60.4345 73.8707C60.4345 70.156 60.4345 66.4413 60.4345 62.7317C60.4345 61.2682 60.0221 60.0029 58.5116 59.637C57.0012 59.2711 57.3106 58.2142 57.3364 57.2791C57.3673 56.0595 58.4189 56.1002 59.2282 56.0951C68.6724 56.0646 78.1233 56.0646 87.5812 56.0951C88.3596 56.0951 89.2257 56.1561 89.2927 57.1978C89.3494 58.082 89.6278 59.0933 88.3854 59.5252C86.5296 60.1757 86.1789 61.5986 86.215 63.3466C86.2872 66.9749 86.215 70.6083 86.246 74.2365C86.2769 76.6401 87.5914 78.0529 89.9628 78.0834C94.8532 78.1545 99.7471 78.1545 104.644 78.0834C107.103 78.0478 108.439 76.6961 108.47 74.3179C108.521 70.4355 108.47 66.5531 108.47 62.6707C108.47 61.2072 107.954 60.0791 106.444 59.5862C105.263 59.2102 105.304 58.204 105.361 57.2995C105.433 56.1866 106.299 56.0697 107.237 56.0748C114.62 56.1019 122.008 56.1188 129.404 56.1256C130.77 56.1256 131.719 56.5169 131.585 58.1582C131.502 59.1746 131.673 60.1909 131.693 61.2072C131.693 61.8932 131.693 62.4828 130.662 62.5895C128.147 62.8436 127.615 64.6221 127.615 66.7208C127.615 74.4856 127.615 82.2503 127.615 90.015C127.646 90.7671 127.569 91.6157 127.512 92.4593Z" fill="#FED012"/>
<path d="M115.656 99.6248C118.996 99.5943 122.358 99.5334 125.688 99.5588C126.337 99.5588 127.399 99.0506 127.554 100.204C127.678 101.124 128.069 102.237 126.77 102.847C124.868 103.746 124.523 105.387 124.595 107.293C124.693 109.834 124.595 112.375 124.641 114.885C124.641 117.08 125.915 118.122 128.039 118.142C133.194 118.188 138.349 118.178 143.504 118.142C145.659 118.142 146.839 117.126 146.813 114.9C146.813 112.283 146.741 109.666 146.813 107.054C146.885 105.164 146.623 103.543 144.653 102.689C143.462 102.181 143.772 101.165 143.859 100.28C143.983 99.0658 145.035 99.5486 145.684 99.5435C150.839 99.5029 155.994 99.513 161.15 99.5435C161.758 99.5435 162.727 99.1471 162.866 100.092C163.005 101.037 163.382 102.125 162.098 102.76C160.036 103.776 159.675 105.565 159.799 107.664C159.942 110.023 159.955 112.387 159.84 114.748C159.711 117.212 161.139 118.071 163.253 118.107C168.408 118.188 173.563 118.152 178.718 118.142C180.837 118.142 182.131 117.243 182.131 114.982C182.131 112.029 182.182 109.082 182.193 106.129C182.222 105.447 182.04 104.772 181.672 104.193C181.304 103.614 180.766 103.159 180.131 102.887C178.94 102.333 178.868 101.48 179.063 100.412C179.306 99.0963 180.368 99.5486 181.126 99.5435C186.446 99.5435 191.766 99.5435 197.106 99.574C197.977 100.351 197.895 101.378 197.895 102.394C197.895 129.991 197.904 157.589 197.921 185.189C197.921 187.054 197.503 187.959 195.431 187.319C194.024 186.876 192.544 186.978 191.085 186.973C175.032 186.973 158.974 186.815 142.921 187.039C134.905 187.151 128.719 183.675 123.193 178.614C118.187 174.04 115.46 168.369 114.579 161.575C114.096 157.995 113.847 154.388 113.831 150.777C113.804 135.247 113.804 119.718 113.831 104.188C113.769 102.455 113.553 100.57 115.656 99.6248Z" fill="#FEFEFE"/>
<path d="M115.656 99.6247C114.779 100.809 114.625 102.135 114.625 103.588C114.666 121.232 114.501 138.885 114.764 156.529C114.865 160.72 115.724 164.861 117.3 168.755C120.46 176.759 126.693 181.409 134.116 184.828C136.184 185.778 138.439 186.264 140.72 186.251C158.154 186.145 175.594 186.206 193.028 186.221C193.802 186.221 194.771 185.977 195.312 186.338C198.008 188.126 197.565 186.089 197.565 184.63C197.565 157.355 197.575 130.084 197.596 102.816C197.596 101.724 197.422 100.638 197.08 99.5993C198.07 99.3655 198.266 99.9448 198.266 100.722C198.266 101.82 198.266 102.918 198.266 104.015V184.574C198.266 186.516 198.096 188.462 198.23 190.393C198.364 192.324 197.523 192.827 195.652 192.807C186.976 192.735 178.3 192.771 169.624 192.771C150.293 192.771 130.961 192.735 111.64 192.832C109.171 192.832 108.475 192.202 108.485 189.722C108.574 160.587 108.574 131.453 108.485 102.318C108.485 100.153 108.928 99.1826 111.294 99.518C112.745 99.6423 114.201 99.678 115.656 99.6247Z" fill="#CCCCCC"/>
<path d="M73.2707 49.9319C68.7239 49.9319 64.1771 49.8709 59.6303 49.9623C57.8415 49.9979 57.2487 49.3932 57.2847 47.6248C57.393 41.8876 57.4548 36.1505 57.3465 30.4184C57.2022 23.0754 65.1308 15.8341 72.0953 15.763C78.1061 15.7071 83.0601 17.5009 86.4831 22.4046C88.1018 24.7219 89.4164 27.3084 89.4009 30.3015C89.3751 36.0387 89.3236 41.7758 89.4009 47.5079C89.4318 49.3678 88.8544 49.9979 86.911 49.9421C82.3642 49.8048 77.8174 49.8963 73.2655 49.8963L73.2707 49.9319Z" fill="#52796F"/>
<path d="M77.4563 9.84797C71.4918 9.12638 65.7131 9.74124 60.7539 13.2577C54.7791 17.4958 51.0571 23.1619 51.0468 30.7081C51.0468 39.2351 51.0468 47.7637 51.0468 56.2941C51.0468 56.7159 51.0778 57.1376 51.0829 57.5594C51.1113 57.7907 51.0886 58.0253 51.0164 58.2472C50.9441 58.469 50.8241 58.6729 50.6645 58.8447C50.5048 59.0166 50.3094 59.1523 50.0916 59.2427C49.8737 59.3331 49.6386 59.376 49.4024 59.3685C48.0517 59.4701 47.8868 58.5097 47.8816 57.5289C47.8816 52.8843 47.8816 48.2397 47.8816 43.5951C47.8816 39.3723 47.8249 35.1494 47.8816 30.9266C48.026 14.4468 64.7285 2.66254 80.6577 7.50026C88.5604 9.90387 93.8392 14.8991 97.2106 21.9778C98.4169 24.5186 98.819 27.4406 98.8139 30.3473C98.8139 39.3824 98.8138 48.4176 98.8705 57.4476C98.8705 58.464 98.6952 59.4142 97.4219 59.338C96.2878 59.2719 95.6383 58.5808 95.6486 57.3612C95.6744 54.0683 95.6486 50.7551 95.6486 47.4825C95.6486 41.3134 95.7259 35.1494 95.5713 28.9854C95.3651 21.0581 88.1634 12.7597 80.6216 10.7779C79.6885 10.0665 78.4306 10.4171 77.4563 9.84797Z" fill="#E3EDF0"/>
<path d="M153.371 68.5514C158.866 68.5514 164.361 68.6124 169.867 68.5209C172.037 68.4853 172.821 69.1409 172.79 71.4073C172.666 81.0319 172.738 90.6514 172.754 100.276C172.754 101.485 172.955 102.639 171.047 102.639C169.14 102.639 169.63 101.333 169.63 100.362C169.63 92.5164 169.63 84.6653 169.63 76.8141C169.63 72.5862 168.501 71.514 164.119 71.5038C156.734 71.5038 149.345 71.5038 141.952 71.5038C138.344 71.5038 137.416 72.4185 137.405 76.0214C137.405 83.7912 137.405 91.5559 137.405 99.3207C137.405 99.9101 137.405 100.5 137.405 101.094C137.374 102.283 136.689 102.659 135.55 102.619C134.209 102.619 134.436 101.785 134.405 100.891C134.111 91.8659 134.307 82.8409 134.405 73.8109C134.472 68.4955 134.405 68.5108 139.952 68.5463C144.416 68.5768 148.881 68.5463 153.355 68.5463L153.371 68.5514Z" fill="#E6F0F5"/>
<path d="M163.154 86.0723C163.154 87.8408 163.025 89.6295 163.19 91.3725C163.34 92.8969 162.886 93.5677 161.278 93.5525C156.123 93.5118 150.999 93.4915 145.859 93.5525C144.483 93.5525 143.756 93.1104 143.694 91.7333C143.498 87.6172 144.091 83.4959 143.632 79.3747C143.519 78.3889 144.173 78.1348 145.075 78.0586C150.55 77.6013 156.02 77.9925 161.494 78.0586C162.716 78.0586 163.149 78.6125 163.128 79.7558C163.092 81.8596 163.128 83.9686 163.128 86.0723H163.154Z" fill="#52796F"/>
<path d="M97.0973 71.5636H96.5818C91.8545 71.4264 92.5711 72.0718 92.4577 67.2493C92.4319 65.9433 92.8341 65.4199 94.1795 65.4656C96.2416 65.5317 98.3036 65.5164 100.366 65.4656C101.593 65.4656 102.18 65.7604 102.263 67.1477C102.536 71.6144 102.598 71.6144 97.0973 71.5636Z" fill="#F7F9F8"/>
<path d="M49.6089 65.4707H50.1244C54.532 65.4707 54.4495 65.4707 54.3155 69.8358C54.2691 71.2841 53.5217 71.5331 52.4391 71.5686C50.6503 71.6195 48.8305 71.5026 47.0674 71.6042C45.0827 71.711 44.3663 70.9741 44.4436 68.9719C44.5776 65.4504 44.4693 65.4453 48.0778 65.4656L49.6089 65.4707Z" fill="#F7F6F7"/>
<path d="M166.645 109.147L174.305 108.954C175.501 108.924 175.914 109.508 175.893 110.672C175.893 111.917 175.269 112.196 174.14 112.196C171.666 112.13 169.196 112.135 166.722 112.115C165.887 111.139 166 110.148 166.645 109.147Z" fill="#DFDFDF"/>
<path d="M131.6 109.153C134.054 109.097 136.508 109.031 138.962 108.98C139.993 108.98 140.802 109.148 140.72 110.505C140.637 111.765 140.075 112.243 138.797 112.192C136.425 112.101 134.049 112.116 131.673 112.085C130.827 111.094 130.951 110.139 131.6 109.153Z" fill="#EBEBEB"/>
<path d="M166.645 109.148L166.723 112.106C165.242 111.13 165.222 110.322 166.645 109.148Z" fill="#717171"/>
<path d="M131.601 109.152C131.601 110.123 131.648 111.094 131.673 112.069C130.09 111.063 130.09 110.189 131.601 109.152Z" fill="#8D8D8D"/>
<path d="M77.4565 9.84798C78.57 9.96485 79.9671 9.15177 80.6218 10.7779C80.0577 10.9061 79.4695 10.8878 78.9147 10.7248C78.3599 10.5618 77.8574 10.2597 77.4565 9.84798Z" fill="#6E7476"/>
<path d="M162.979 137.457C163.304 137.091 163.618 136.715 163.953 136.359C167.046 133.051 166.953 133.127 170.248 136.278C171.325 137.294 171.335 137.833 170.335 138.819C164.493 144.449 158.678 150.102 152.89 155.776C148.175 160.38 143.46 164.986 138.745 169.593C138.526 169.849 138.294 170.093 138.049 170.325C137.137 171.021 136.234 172.535 135.126 171.895C133.755 171.107 132.75 169.644 131.744 168.338C131.404 167.901 131.863 167.367 132.363 166.895C139.776 159.818 147.165 152.703 154.53 145.552C155.52 144.597 156.468 143.59 157.437 142.61C159.422 141.075 161.087 139.144 162.979 137.457Z" fill="#173F35"/>
<path d="M152.772 167.902C151.648 161.829 153.87 158.389 158.309 156.443C163.247 154.278 168.969 157.098 170.944 162.032C172.49 165.935 171.269 168.979 168.639 171.55C165.871 174.249 162.546 175.407 158.535 173.73C157.147 173.224 155.876 172.448 154.798 171.449C154.097 170.295 153.432 169.101 152.772 167.902Z" fill="#173F35"/>
<path d="M142.395 149.344C137.168 149.227 132.23 144.572 132.936 139.937C133.73 134.739 136.699 131.039 142.767 130.887C147.839 130.765 152.953 135.659 152.443 140.278C151.886 145.299 148.757 149.638 142.395 149.344Z" fill="#173F35"/>
<path d="M162.98 137.457C161.474 139.546 159.84 141.497 157.412 142.625C158.912 140.531 160.603 138.641 162.98 137.457Z" fill="#6D6D6D"/>
<path d="M152.772 167.902C153.855 168.863 154.953 169.818 154.798 171.459C153.582 170.58 152.458 169.64 152.772 167.902Z" fill="#767676"/>
<path d="M161.768 168.084C159.989 167.82 158.675 166.966 158.783 165.035C158.896 163.18 160.01 161.905 162.005 161.92C164 161.935 164.933 163.297 164.944 165.147C164.954 167.108 163.655 167.906 161.768 168.084Z" fill="#F2F2F2"/>
<path d="M144.493 137.519C146.246 139.552 146.385 141.112 144.869 142.469C143.457 143.734 141.931 143.729 140.56 142.469C138.689 140.751 139.451 139.095 140.874 137.525C141.413 137.181 142.041 136.997 142.683 136.996C143.325 136.995 143.953 137.177 144.493 137.519Z" fill="#E1E1E1"/>
<path d="M144.493 137.518H140.885C142.076 135.831 143.282 135.912 144.493 137.518Z" fill="#545454"/>
</svg>
