<svg width="342" height="222" viewBox="0 0 342 222" fill="none" xmlns="http://www.w3.org/2000/svg">
<path d="M48.5463 211.84C42.1333 217.384 34.5451 220.088 26.1165 220.367C19.2551 220.591 12.3731 220.331 5.49618 220.458C3.46508 220.499 3.10938 219.777 3.10938 217.984C3.16093 195.77 3.16093 173.558 3.10938 151.348C3.10938 149.575 3.62489 149.036 5.43432 149.062C12.3937 149.148 19.353 148.934 26.3072 149.153C31.7768 149.321 36.8082 150.871 41.855 153.34C49.6091 157.003 55.6948 163.39 58.9183 171.248C61.6259 177.678 62.2823 184.768 60.7999 191.574C59.695 197.133 57.2753 202.356 53.7374 206.819C52.266 208.735 50.5169 210.426 48.5463 211.84Z" fill="#FDFEFE"/>
<path d="M178.872 220.485C176.639 220.485 174.402 220.409 172.17 220.515C170.536 220.592 169.654 219.951 169.128 218.452C167.902 214.971 166.489 211.551 165.319 208.055C164.834 206.617 164.113 206.023 162.581 206.023C154.514 206.048 146.441 206.023 138.353 206.023C136.95 206.023 136.208 206.673 135.775 207.943C134.461 211.648 133.017 215.312 131.744 219.026C131.326 220.236 130.594 220.551 129.45 220.551C124.728 220.551 120.006 220.5 115.284 220.551C113.35 220.551 113.402 219.723 113.974 218.335C116.036 213.34 118.392 208.452 120.305 203.431C123.537 194.955 127.316 186.712 130.708 178.307C133.904 170.39 137.878 162.737 140.44 154.642C142.039 149.561 144.709 148.59 149.256 149.083C151.38 149.312 153.545 149.139 155.689 149.083C157.401 149.052 158.375 149.271 159.169 151.339C162.195 159.246 165.757 166.955 169.025 174.781C172.783 183.795 176.34 192.902 180.186 201.881C182.614 207.557 184.944 213.264 187.336 218.945C187.955 220.409 187.517 220.51 186.331 220.51H178.861L178.872 220.485Z" fill="#FDFDFD"/>
<path d="M68.7954 184.465C68.7954 173.575 68.847 162.685 68.749 151.79C68.749 149.676 69.3934 149.046 71.5276 149.061C83.807 149.139 96.0881 149.139 108.371 149.061C110.402 149.061 111.129 149.615 111.026 151.642C110.871 154.691 110.881 157.74 111.026 160.759C111.108 162.7 110.294 163.218 108.448 163.198C101.834 163.122 95.2203 163.244 88.6115 163.122C86.4979 163.086 85.6474 163.676 85.735 165.815C85.8639 168.864 85.8639 171.913 85.735 174.931C85.6525 176.847 86.1474 177.574 88.3126 177.523C94.7513 177.366 101.2 177.523 107.634 177.427C109.392 177.427 110.067 177.879 109.985 179.698C109.845 182.899 109.866 186.111 109.985 189.317C110.036 190.898 109.469 191.35 107.922 191.35C101.654 191.289 95.3802 191.426 89.1167 191.289C86.6217 191.238 85.6371 191.909 85.7608 194.674C85.9051 197.789 85.8897 200.919 85.7969 204.044C85.7453 205.716 86.4052 206.244 88.0445 206.219C94.8234 206.128 101.608 206.173 108.386 206.041C110.448 206.006 111.129 206.758 111.057 208.709C110.949 211.829 110.923 214.959 111.057 218.08C111.134 220.016 110.371 220.504 108.505 220.493C96.2256 220.415 83.9445 220.407 71.6617 220.468C69.5017 220.468 68.816 219.751 68.8315 217.678C68.8366 206.585 68.8006 195.527 68.7954 184.465Z" fill="#FEFDFD"/>
<path d="M249.595 200.767C254.786 203.816 259.967 207.109 266.323 206.57C269.519 206.301 273.025 205.965 274.571 202.164C275.68 199.374 275.432 197.235 273.148 195.289C269.818 192.443 265.715 190.934 261.807 189.12C255.188 186.071 248.92 182.514 246.074 175.399C243.445 168.793 244.46 162.416 248.852 156.836C255.832 147.969 265.313 145.905 276.076 147.816C276.829 147.953 277.587 148.05 278.345 148.162C279.025 148.533 278.922 149.132 278.757 149.686C278.01 152.258 277.52 154.905 276.644 157.431C275.942 159.463 276.185 160.988 277.86 162.355C278.18 162.797 278.891 163.229 278.324 163.808C277.757 164.387 277.092 164.113 276.484 163.762C272.287 161.806 268.035 161.166 263.874 163.691C260.627 165.668 260.405 169.789 263.328 172.162C266.937 175.105 271.385 176.598 275.587 178.484C282.036 181.385 287.959 184.851 291.691 191.117C294.166 195.243 294.047 199.725 293.166 203.958C291.913 209.954 288.578 214.823 282.701 217.755C278.606 219.783 274.154 221.015 269.586 221.383C259.245 222.282 249.791 219.574 241.012 214.269C238.692 212.871 238.434 211.875 239.908 209.517C241.481 206.977 243.001 204.385 244.548 201.819C244.734 201.534 244.512 201.905 244.692 201.615C246.672 198.48 246.672 198.48 249.595 200.767Z" fill="#FDFEFD"/>
<path d="M277.432 162.808C275.122 161.639 275.179 159.805 275.808 157.676C276.736 154.525 277.509 151.329 278.349 148.148C278.568 145.973 279.433 143.911 280.834 142.217C281.927 140.972 284.04 140.002 285.726 139.677C288.304 139.168 290.335 137.644 292.768 136.922C295.672 136.087 298.48 134.954 301.145 133.543C304.955 131.475 309.166 130.453 313.002 128.36C315.259 127.145 317.668 126.228 320.167 125.631C322.472 125.092 324.58 123.73 326.74 122.663C328.56 121.764 329.833 122.313 330.601 124.056C332.204 127.821 334.029 131.495 335.658 135.235C337.509 139.504 339.236 143.823 341.02 148.117C341.633 149.611 341.308 150.521 339.684 151.303C334.983 153.57 330.008 155.201 325.302 157.401C321.729 159.053 318.085 160.669 314.476 162.066C310.398 163.636 306.548 165.791 302.264 166.914C300.176 167.463 298.191 168.576 296.32 169.699C294.227 170.954 292.474 170.979 290.412 169.562C288.732 168.403 286.721 167.702 284.855 166.797C282.236 165.659 279.916 164.068 277.432 162.808Z" fill="#173F35"/>
<path d="M208.054 177.819C208.054 186.458 208.101 195.046 208.023 203.654C208.023 205.575 208.405 206.235 210.601 206.164C217.38 205.946 224.169 206.083 230.953 206.047C232.551 206.047 233.273 206.596 233.227 208.283C233.129 211.658 233.139 215.037 233.227 218.411C233.268 219.961 232.711 220.444 231.165 220.444C218.538 220.403 205.913 220.403 193.29 220.444C191.656 220.444 191.012 219.9 191.012 218.233C191.05 195.874 191.05 173.5 191.012 151.11C191.012 149.408 191.723 148.905 193.316 148.92C197.44 148.966 201.564 148.996 205.688 148.92C207.668 148.874 208.132 149.692 208.116 151.496C208.039 160.277 208.08 169.058 208.08 177.834L208.054 177.819Z" fill="#FDFDFD"/>
<path d="M164.02 81.2074C162.293 76.2223 160.551 71.2423 158.865 66.242C158.674 65.6729 158.473 65.3527 157.834 65.4188C157.728 65.4181 157.622 65.4384 157.524 65.4787C157.426 65.519 157.337 65.5784 157.262 65.6533C157.187 65.7282 157.129 65.8171 157.09 65.9147C157.051 66.0124 157.032 66.1168 157.035 66.2217C156.988 66.7284 156.969 67.2374 156.978 67.7462C157.267 73.6561 155.715 79.4339 155.782 85.3388C155.782 86.3856 155.406 86.9242 154.318 86.9141C154.061 86.9141 153.803 86.9141 153.545 86.9141C146.524 87.1681 146.41 87.158 146.983 80.3994C147.844 70.1549 148.906 59.9255 149.808 49.6809C149.931 48.2784 150.442 47.7093 151.87 47.8058C152.808 47.8668 153.756 47.8058 154.7 47.8058C160.252 47.8058 160.2 47.9126 162.02 53.0857C163.953 58.5891 166.221 63.9756 168.428 69.6365C170.614 67.7919 170.758 65.1799 171.717 63.0304C173.722 58.5586 175.325 53.9139 176.996 49.31C177.093 48.9539 177.29 48.6317 177.563 48.3795C177.836 48.1273 178.175 47.9551 178.542 47.8821C178.795 47.8355 179.053 47.8117 179.31 47.8109C187.558 47.1198 187.486 47.1249 188.177 55.1183C188.997 64.6769 189.986 74.2253 190.852 83.7787C191.136 86.8735 191.064 86.8785 187.801 86.909C181.615 86.97 181.615 86.97 181.249 80.9635C181.114 78.8597 181.084 76.7508 181.006 74.6419C180.657 71.8557 180.5 69.0492 180.537 66.242C180.537 65.2765 180.398 64.067 179.047 65.5102C177.207 70.7087 175.408 75.9174 173.485 81.0854C173.222 81.7918 173 82.493 172.799 83.2146C171.825 86.7209 171.583 86.6448 167.907 86.8683C165.593 87.0056 165.706 85.3997 165.051 84.2259C164.489 83.2959 164.912 82.0408 164.02 81.2074Z" fill="#FCFCFC"/>
<path d="M1.16088 118.461C1.16088 111.626 1.24334 104.786 1.10415 97.9564C1.06291 95.9238 1.8104 95.4969 3.62499 95.6189C5.42262 95.7688 7.22991 95.7688 9.02754 95.6189C11.4762 95.38 11.9092 96.6352 11.8577 98.6272C11.7494 102.926 11.8577 107.236 11.6515 111.524C11.538 113.684 12.3835 114.126 14.3115 114.065C17.8273 113.964 21.3533 113.948 24.8691 114.065C26.7404 114.126 27.4466 113.593 27.3951 111.651C27.261 107.18 27.4673 102.703 27.2971 98.2359C27.2095 96.0559 27.9725 95.4563 30.0603 95.6291C32.1481 95.8018 34.1843 95.69 36.2464 95.6646C37.6537 95.6646 38.1795 96.249 38.1744 97.6668C38.1262 111.587 38.1262 125.509 38.1744 139.433C38.1744 140.911 37.798 141.608 36.1742 141.526C33.3595 141.394 29.7716 142.395 27.9261 141.018C26.0805 139.641 27.4827 135.982 27.3848 133.32C27.2868 130.657 27.2868 127.918 27.3848 125.224C27.4518 123.644 26.8229 123.136 25.3227 123.156C21.4616 123.207 17.5901 123.192 13.7393 123.156C12.2237 123.156 11.5999 123.7 11.6411 125.265C11.7649 129.839 11.6875 134.366 11.8474 138.914C11.9144 140.845 11.404 141.709 9.26981 141.526C7.30058 141.364 5.32102 141.364 3.35179 141.526C1.45988 141.674 1.08353 140.896 1.10415 139.204C1.19179 132.288 1.14024 125.367 1.14024 118.451L1.16088 118.461Z" fill="#FCFDFD"/>
<path d="M68.1355 24.0378C69.017 23.1028 68.7438 22.1373 68.749 21.2378C68.749 15.3228 68.8572 9.40777 68.7077 3.50291C68.651 1.20602 69.5944 0.596268 71.708 0.565778C78.2601 0.469227 78.2653 0.418408 78.2653 6.85175C78.2653 16.9896 78.224 27.1224 78.3013 37.2551C78.3013 39.4352 77.5693 39.9027 75.3423 40.1771C70.146 40.8224 67.486 38.6018 65.1147 34.2468C61.9546 28.4537 57.846 23.1638 54.1859 17.6299C53.8714 17.1522 53.6137 16.7508 53.0363 16.9388C52.3713 17.1573 52.6394 17.7823 52.6394 18.2396C52.6394 24.4901 52.5465 30.7405 52.6909 36.9858C52.7424 39.2929 52.2579 40.2177 49.6339 40.1263C43.3911 39.9078 43.386 40.05 43.3911 33.7996C43.3911 23.5855 43.4581 13.3664 43.3447 3.14722C43.3447 1.06884 44.0768 0.784288 45.979 0.565778C50.6547 0.0576146 53.624 1.51093 56.0314 5.74393C59.64 12.0401 64.0527 17.8992 68.1355 24.0378Z" fill="#FCF9F9"/>
<path d="M219.18 86.7349C216.87 86.7959 214.54 86.7756 212.246 86.9534C210.385 87.0957 209.952 86.3283 209.968 84.626C210.045 76.2718 210.009 67.9176 210.009 59.5583C210.009 56.3518 210.076 53.1453 209.968 49.9438C209.906 48.2517 210.576 47.7994 212.215 47.7638C219.283 47.6012 219.206 47.6063 223.041 53.5671C226.815 59.4262 230.774 65.1735 235.264 70.8802V66.4948C235.264 61.0117 235.331 55.5235 235.212 50.0404C235.171 48.3381 235.81 47.8756 237.393 47.7791C244.569 47.337 244.579 47.3065 244.584 54.2073C244.584 64.1623 244.517 74.1223 244.61 84.0772C244.61 86.1962 244.161 86.8365 241.826 87.0398C237.321 87.426 234.362 86.2165 232.093 82.075C229.279 76.9476 225.65 72.2522 222.397 67.3383C222.123 66.9165 222.031 66.383 221.366 66.3677C220.804 66.1746 221.134 65.0414 220.262 65.265C219.489 65.4682 219.711 66.2203 219.711 66.764C219.711 72.4555 219.711 78.1419 219.711 83.8333C219.695 84.8293 219.984 85.8812 219.18 86.7349Z" fill="#FCFCFD"/>
<path d="M162.922 118.673C162.922 111.752 162.974 104.831 162.886 97.9095C162.886 96.1615 163.376 95.5974 165.191 95.6177C172.662 95.699 180.132 95.699 187.6 95.6177C189.481 95.6177 190.095 96.1259 190.095 98.0315C190.095 104.673 190.157 104.673 183.445 104.668C180.955 104.668 178.465 104.709 175.975 104.633C174.465 104.587 173.681 105.1 173.8 106.665C173.8 106.833 173.8 107.001 173.8 107.173C173.707 114.044 173.707 114.044 180.707 114.034C182.769 114.034 184.831 114.12 186.894 114.034C188.59 113.942 189.296 114.399 189.337 116.244C189.502 123.247 189.569 123.252 182.445 123.241C180.213 123.241 177.975 123.277 175.743 123.191C174.289 123.135 173.82 123.699 173.753 125.106C173.398 132.287 173.367 132.282 180.651 132.266C183.141 132.266 185.631 132.322 188.12 132.297C189.543 132.297 190.007 132.866 190.069 134.274C190.384 141.546 190.425 141.546 183.105 141.551C177.176 141.551 171.248 141.474 165.33 141.581C163.469 141.617 162.83 141.19 162.866 139.233C162.989 132.353 162.922 125.513 162.922 118.673Z" fill="#FCFDFC"/>
<path d="M105.706 75.2111C102.84 64.8192 105.036 56.6124 113.299 50.5297C119.702 45.8139 130.311 45.9562 136.564 50.7482C143.421 56.0331 146.163 62.9441 144.812 71.1509C144.111 75.4608 141.98 79.4198 138.752 82.4082C135.525 85.3967 131.383 87.2458 126.976 87.6662C118.955 88.464 112.65 85.41 107.84 79.1596C106.66 78.0924 106.737 76.3799 105.706 75.2111Z" fill="#FBFAFC"/>
<path d="M212.003 94.8652H215.066C218.391 95.4598 221.736 95.9324 224.86 97.3349C227.561 98.5545 227.819 99.1287 226.541 101.68C225.865 103.026 225.185 104.373 224.479 105.715C223.989 106.65 223.386 107.239 222.283 106.517C219.215 105.15 216.143 103.89 212.627 104.332C211.615 104.392 210.648 104.77 209.869 105.41C208.287 106.497 207.931 107.874 208.869 109.551C209.508 110.837 210.792 111.381 211.906 112.122C215.359 114.059 219.339 114.922 222.628 117.204C226.974 120.217 229.979 123.912 229.206 129.578C228.5 134.705 226.041 138.557 220.999 140.463C216.359 142.211 211.72 142.836 206.652 141.804C203.204 141.103 200.167 139.772 197.049 138.42C195.806 137.348 193.363 136.855 195.017 134.38C196.048 132.713 197.079 131.031 198.136 129.38C198.734 128.46 199.023 127.403 200.714 128.562C202.909 130.106 205.347 131.284 207.931 132.048C209.994 132.595 212.164 132.623 214.241 132.129C216.303 131.722 217.432 130.528 217.622 128.673C217.793 127.012 217.055 125.624 215.447 124.649C213.089 123.309 210.654 122.108 208.153 121.051C204.405 119.338 201.198 117.021 199.209 113.373C196.848 109.048 198.044 102.564 203.235 98.3461C205.858 96.5569 208.854 95.3677 212.003 94.8652Z" fill="#FAFBFC"/>
<path d="M151.313 0.0378462C162.03 -0.693909 171.809 9.30164 171.748 19.9629C171.681 31.5846 163.247 40.5334 152.107 40.6858C139.637 40.8637 131.486 32.7178 130.924 20.7404C130.409 9.90129 140.363 -0.597358 151.313 0.0378462Z" fill="#FBFAFB"/>
<path d="M286.67 70.8611C287.598 83.0571 273.195 89.8207 263.673 87.2088C253.677 84.4596 247.795 75.1754 248.656 65.3069C249.497 55.6518 256.616 48.131 266.416 47.013C272.401 46.3473 277.669 48.2581 282.185 52.2014C283.438 53.299 283.433 54.234 282.257 55.3469C281.706 55.8551 281.226 56.4293 280.711 56.9883C278.169 59.8187 278.293 59.6663 275.257 57.3897C270.39 53.7411 263.601 54.3865 259.977 61.0993C256.693 67.1973 258.915 75.8361 264.843 78.4379C269.519 80.4705 274.669 79.4541 277.061 74.5707C277.772 73.1275 277.783 71.9282 275.514 72.0299C273.803 72.1213 272.076 71.9943 270.359 72.0706C268.813 72.1417 268.101 71.5624 268.22 70.0379C268.22 69.8702 268.22 69.7025 268.22 69.5298C268.287 64.4481 267.746 65.4644 272.437 65.3882C276.21 65.3374 279.999 65.5457 283.778 65.3171C286.294 65.1646 286.99 66.1149 286.685 68.3356C286.63 69.1764 286.625 70.0197 286.67 70.8611Z" fill="#F9FBFB"/>
<path d="M83.5598 20.3036C83.5598 14.6579 83.6372 9.00718 83.5186 3.36149C83.4722 1.32883 83.9516 0.475091 86.1941 0.602132C90.3181 0.840969 94.4422 0.525918 98.5199 0.993428C101.342 1.28151 104.057 2.21176 106.452 3.71091C108.847 5.21006 110.856 7.23711 112.32 9.6322C116.702 16.467 116.872 23.7388 112.449 30.7413C109.66 35.1572 105.567 37.9013 100.371 39.2632C95.3701 40.5692 90.3336 39.7206 85.328 40.061C83.4103 40.1881 83.565 38.9583 83.565 37.7692C83.5615 31.9423 83.5598 26.1204 83.5598 20.3036Z" fill="#FBFCFC"/>
<path d="M0.0318687 63.1667C0.0318687 58.7761 0.0834208 54.3856 0.00093951 49.9951C-0.0248359 48.4706 0.475207 47.9624 2.06297 47.9065C9.28008 47.5915 9.23884 47.5508 9.28008 54.5889C9.28008 60.8393 9.3677 67.0846 9.35739 73.335C9.35739 75.9521 10.5018 78.0406 12.9144 78.8181C15.1208 79.5245 17.6622 79.7176 19.7603 78.122C21.6316 76.7042 22.276 74.6664 22.2863 72.4305C22.2863 65.1688 22.3791 57.9021 22.2863 50.6455C22.2554 48.6129 22.6781 47.8608 24.9257 47.8811C31.5242 47.9421 31.5294 47.8405 31.5346 54.3348C31.5346 60.6665 31.5655 67.0033 31.5346 73.335C31.4624 82.2533 26.1681 87.4976 17.1003 87.7669C13.9042 87.8634 10.7854 87.6602 7.82119 86.3593C2.82076 84.1742 0.277593 80.4121 0.191675 75.073C0.119504 71.1093 0.191675 67.1354 0.191675 63.1667H0.0318687Z" fill="#FBFBFA"/>
<path d="M193.92 31.4778C196.193 30.4615 197.013 28.5457 197.013 26.3047C197.09 18.6822 197.147 11.1106 197.054 3.51357C197.054 1.53173 197.569 0.911795 199.631 0.932122C206.39 0.993101 206.4 0.932109 206.405 7.46201C206.405 14.1291 206.333 20.8013 206.405 27.4684C206.428 30.8427 205.099 34.0895 202.709 36.5049C200.319 38.9202 197.059 40.3092 193.636 40.3707C189.821 40.4469 186.115 40.5688 182.532 39.1256C179.145 37.7638 177.145 35.1874 175.784 31.9199C174.753 29.4147 174.897 26.8383 174.887 24.2975C174.887 17.2899 174.928 10.2823 174.841 3.27475C174.815 1.51142 175.356 0.987992 177.166 0.967666C184.166 0.881278 184.156 0.820306 184.156 7.77198C184.156 13.5955 184.156 19.4191 184.213 25.2477C184.244 27.753 184.821 30.1058 187.306 31.488C188.354 31.9184 189.478 32.1391 190.614 32.1374C191.749 32.1356 192.873 31.9114 193.92 31.4778Z" fill="#FAFBFA"/>
<path d="M136.909 123.232C136.909 117.836 136.853 112.434 136.94 107.037C136.971 105.177 136.347 104.496 134.43 104.603C132.208 104.745 129.971 104.603 127.728 104.639C126.481 104.639 125.981 104.222 125.888 102.88C125.372 95.6391 125.336 95.6493 132.692 95.6544C140.673 95.6544 148.673 95.7102 156.628 95.6035C158.586 95.6035 159.205 96.1727 158.978 98.0326C158.731 100.106 159.87 102.819 158.576 104.131C157.158 105.569 154.354 104.481 152.163 104.639C151.477 104.7 150.787 104.7 150.101 104.639C148.096 104.415 147.915 105.558 147.921 107.119C147.967 116.733 147.952 126.347 147.946 135.962C147.946 141.552 147.946 141.552 142.152 141.552C136.878 141.552 136.878 141.552 136.884 136.384V123.232H136.909Z" fill="#FBFCFB"/>
<path d="M102.752 123.243C102.752 117.76 102.716 112.277 102.752 106.794C102.752 105.239 102.386 104.492 100.582 104.614C98.1952 104.776 95.7827 104.613 93.3649 104.685C92.0349 104.725 91.4318 104.248 91.5503 102.937C91.5503 102.769 91.5503 102.601 91.5503 102.428C91.3957 95.6241 91.3957 95.6241 98.3087 95.6292C106.201 95.6292 114.094 95.6952 121.986 95.6292C123.996 95.6292 124.857 96.0154 124.837 98.2411C124.765 104.664 124.868 104.654 118.223 104.664C113.676 104.664 113.537 103.709 113.583 109.294C113.66 119.244 113.552 129.198 113.635 139.148C113.635 140.988 113.202 141.74 111.232 141.613C109 141.501 106.763 141.501 104.531 141.613C103.093 141.659 102.623 141.135 102.644 139.702C102.721 134.224 102.675 128.741 102.675 123.258L102.752 123.243Z" fill="#FDFCFC"/>
<path d="M253.383 123.456C253.383 128.685 253.28 133.914 253.429 139.137C253.491 141.201 252.785 141.76 250.821 141.587C249.026 141.422 247.219 141.422 245.424 141.587C243.362 141.785 242.779 141.028 242.8 139.046C242.892 128.928 242.846 118.806 242.861 108.688C242.861 104.623 242.861 104.623 238.794 104.623C237.077 104.623 235.361 104.582 233.639 104.659C232.067 104.725 231.458 103.988 231.515 102.534C231.515 102.367 231.515 102.199 231.515 102.026C231.458 95.6082 231.458 95.6184 237.969 95.6234C246.032 95.6234 254.094 95.6794 262.157 95.5879C264.08 95.5879 264.647 96.1367 264.662 98.022C264.734 104.628 264.801 104.628 258.167 104.628C257.569 104.628 256.966 104.628 256.368 104.628C254.306 104.511 253.275 105.299 253.316 107.525C253.419 112.835 253.347 118.145 253.347 123.461L253.383 123.456Z" fill="#FDFDFC"/>
<path d="M67.4862 67.3902C67.048 58.0502 75.9869 49.4571 84.8536 47.8513C90.0066 46.8851 95.3362 47.5006 100.123 49.6146C100.2 49.6502 100.288 49.6655 100.365 49.696C102.061 50.2041 102.376 51.8861 101.396 52.6128C99.5663 53.9899 100.881 58.8734 96.5866 57.1863C89.3076 54.3355 80.9203 56.6121 77.9716 63.3859C75.724 68.5438 79.1057 76.2069 84.467 78.1227C88.8643 79.6929 93.0863 79.5251 97.1795 77.4976C98.726 76.7251 99.1126 77.9397 99.4528 78.5749C100.138 79.8656 100.778 81.1767 101.468 82.4725C102.046 83.5498 102.056 84.5458 100.51 85.308C89.1684 90.8978 75.7189 86.9342 69.4915 76.09C67.9553 73.4069 67.4501 71.2218 67.4862 67.3902Z" fill="#FAFCFC"/>
<path d="M57.2734 48.7606C62.3872 50.407 65.1091 53.959 65.4339 59.1525C65.9494 66.9325 59.8303 72.1716 52.4534 72.446C50.4841 72.5172 48.52 72.5578 46.5508 72.6137C45.6641 73.63 46.1023 74.8649 46.0353 76.0134C45.7621 79.5705 46.5869 83.2242 45.5198 86.7711C42.767 87.0659 40.0193 87.2234 37.2717 86.7051C36.5603 85.9276 36.7562 84.9672 36.7562 84.0576C36.7562 73.027 36.7562 61.9965 36.7562 50.966C36.7562 47.9932 36.7562 47.9881 39.6997 47.9881C44.1537 47.9881 48.6077 47.9881 53.0617 47.9881C54.5085 47.9032 55.9544 48.1684 57.2734 48.7606Z" fill="#FCFBFC"/>
<path d="M0.558069 20.2632C0.558069 14.6124 0.625113 8.96163 0.522011 3.31594C0.48077 1.28328 1.34681 0.602368 3.24388 0.60745C9.42997 0.63794 15.604 0.63794 21.7661 0.60745C23.6425 0.60745 24.2302 1.4459 24.2251 3.25496C24.2251 8.33659 24.2818 8.33662 19.1679 8.36711C16.6832 8.36711 14.1984 8.42297 11.7137 8.45346C11.5436 8.45346 11.3219 8.36199 11.1982 8.45346C8.67217 10.0897 10.3167 12.5696 9.98673 14.6429C9.83723 15.5678 9.98673 16.7365 11.858 16.5231C14.5438 16.208 17.276 16.701 20.0185 16.2538C21.6991 15.9794 23.2971 16.4164 23.225 18.8708C23.0497 24.547 23.7972 24.4098 17.6678 24.2675C15.8687 24.2268 14.0592 24.359 12.2653 24.2675C10.4713 24.176 9.86301 24.9891 9.89394 26.661C9.9558 30.0352 9.81145 33.4094 9.95064 36.7785C10.0434 39.1516 9.47637 40.5186 6.69263 40.0866C5.58716 39.9215 4.46277 39.9215 3.35731 40.0866C0.934418 40.4576 0.48077 39.299 0.522011 37.2155C0.625113 31.5699 0.558069 25.919 0.558069 20.2683V20.2632Z" fill="#FBF7F7"/>
<path d="M228.078 24.1503C228.078 28.5408 227.99 32.9314 228.119 37.3168C228.176 39.3495 227.655 40.127 225.418 40.0965C219.051 40.005 219.056 40.0965 219.061 33.78C219.061 26.2694 218.999 18.7536 219.108 11.248C219.139 9.0426 218.412 8.10758 216.154 8.32609C215.045 8.46837 213.922 8.46837 212.813 8.32609C211.628 8.12791 209.86 9.41356 209.354 7.81793C208.71 5.78528 208.875 3.46302 209.354 1.32874C209.504 0.683368 210.638 0.657925 211.416 0.657925H235.645C236.233 0.657925 237.078 0.530862 237.192 1.20672C237.577 3.44902 237.595 5.73791 237.243 7.98566C237.145 8.65136 236.511 8.49379 235.991 8.45822C234.186 8.40232 232.382 8.51921 230.588 8.34644C228.449 8.13809 227.949 9.06801 228.011 10.9889C228.119 15.3743 228.042 19.7649 228.042 24.1503H228.078Z" fill="#FBFCFC"/>
<path d="M28.3852 20.2581C28.3852 14.6073 28.4934 8.94629 28.3336 3.3006C28.2769 1.20696 29.1636 0.617515 30.9936 0.653087H31.2514C37.6076 0.449821 37.6334 0.449829 37.6437 6.69516C37.6437 16.7365 37.5973 26.7829 37.6798 36.8191C37.6798 39.1668 37.2829 40.2644 34.4476 40.1323C28.4161 39.8427 28.4006 40.0205 28.3852 34.1868C28.3749 29.5422 28.3852 24.8976 28.3852 20.2581Z" fill="#FCF6F5"/>
<path d="M204.188 67.5005C204.188 73.2326 204.126 78.9697 204.229 84.6967C204.26 86.5058 203.616 86.9529 201.874 86.9631C194.976 87.0139 194.976 87.0698 194.971 80.4179C194.971 70.3055 195.007 60.188 194.93 50.0704C194.93 48.3427 195.394 47.7685 197.219 47.7533C204.183 47.6872 204.183 47.6211 204.188 54.3594V67.5005Z" fill="#FAFCFC"/>
<path d="M57.2737 48.7602C51.6031 47.8099 45.8242 48.4705 40.1124 48.1707C37.7411 48.0436 37.2823 48.8872 37.2977 51.0367C37.375 62.9227 37.2977 74.8137 37.2977 86.6997C35.8904 86.5523 36.4007 85.4495 36.4007 84.7432C36.3647 73.1875 36.4007 61.6319 36.3646 50.0814C36.3646 48.6128 36.6482 47.5405 38.4267 47.5812C43.9168 47.632 49.407 47.6422 54.892 47.7591C55.7014 47.7794 56.7942 47.6473 57.2737 48.7602Z" fill="#52796F"/>
<path d="M219.18 86.7349V63.3086C220.675 64.1776 221.365 65.0465 221.381 66.388C219.886 65.4225 220.226 66.6625 220.226 67.3536C220.226 72.9992 220.252 78.65 220.226 84.3008C220.211 85.1799 220.814 86.4503 219.18 86.7349Z" fill="#B64D4F"/>
<path d="M222.272 106.534C223.149 106.443 223.912 106.239 224.268 105.269C224.561 104.486 225.02 103.744 225.391 103.008C227.5 98.6679 227.278 98.551 222.592 96.8181C220.113 95.8983 217.313 96.4523 215.061 94.882C219.339 94.4654 223.082 96.0356 226.726 97.931C227.85 98.5154 228.366 99.298 227.644 100.589C226.572 102.494 225.649 104.476 224.597 106.392C223.958 107.566 223.154 108.115 222.272 106.534Z" fill="#E49498"/>
<path d="M45.5259 86.7707C45.5259 82.7511 45.4846 78.7367 45.5259 74.7222C45.5259 73.9244 45.0101 72.7403 46.5574 72.6133C46.5574 76.6329 46.5574 80.6575 46.5058 84.6822C46.4852 85.4292 47.1248 86.664 45.5259 86.7707Z" fill="#52796F"/>
<path d="M179.037 65.5191C179.037 64.7264 178.645 63.6593 179.924 63.5678C181.202 63.4763 181.001 64.5841 181.006 65.3819C181.032 68.4716 181.006 71.5612 181.006 74.6508C180.192 72.3285 180.156 69.9046 179.975 67.4908C179.908 66.7794 180.413 65.7072 179.037 65.5191Z" fill="#D9ACB1"/>
<path d="M212.004 94.865L203.204 98.3612C204.307 97.1605 205.672 96.2221 207.196 95.6165C208.721 95.0109 210.364 94.754 212.004 94.865Z" fill="#DF989E"/>
<path d="M193.919 31.4785C192.44 33.003 189.074 33.003 187.311 31.4785H193.919Z" fill="#EB9496"/>
<path d="M195.017 134.396C194.259 136.429 196.285 137.13 197.048 138.436C195.667 138.223 194.409 137.735 193.991 136.302C193.765 135.514 193.79 134.569 195.017 134.396Z" fill="#D58C92"/>
<path d="M48.5459 211.839C50.1118 210.013 51.85 208.337 53.7371 206.834C52.603 209.111 51.077 210.976 48.5459 211.839Z" fill="#DC8D9B"/>
<path d="M105.706 75.2109C107.335 76.0494 107.289 77.7518 107.845 79.1594C106.196 78.3362 105.892 76.8066 105.706 75.2109Z" fill="#DE9093"/>
<path d="M37.2822 86.7051L45.5304 86.7711C42.7672 87.5029 40.0196 87.6401 37.2822 86.7051Z" fill="#52796F"/>
<path d="M208.869 109.567C207.323 107.697 207.575 106.579 209.869 105.426C208.931 106.666 208.807 108.094 208.869 109.567Z" fill="#DEA09E"/>
<path fill-rule="evenodd" clip-rule="evenodd" d="M47.4634 103.773C43.0868 109.19 41.7207 115.42 42.4424 122.194C42.443 122.195 42.4436 122.196 42.4442 122.196C42.4436 122.196 42.4431 122.196 42.4425 122.195C42.4611 122.522 42.4244 122.862 42.3877 123.202C42.2824 124.179 42.1772 125.154 43.3864 125.798C43.3853 125.784 43.3844 125.77 43.3836 125.755C43.3943 125.768 43.4054 125.78 43.4167 125.792C44.3121 129.22 46.0832 132.365 48.5611 134.928L48.5459 134.924C49.6285 136.443 50.7626 137.907 52.7267 138.41L52.7225 138.404L52.7525 138.425C64.3979 146.261 81.7808 142.15 87.8071 128.831L87.836 128.767C89.6032 127.13 89.8125 124.938 90.0169 122.797C90.0423 122.531 90.0676 122.266 90.0959 122.003C90.5406 118.304 90.7978 114.57 88.8614 111.118L88.8381 111.045C88.6224 109.845 88.0238 108.824 87.4231 107.799C87.2199 107.453 87.0165 107.106 86.8276 106.751C79.3424 92.7563 58.4438 90.185 47.4634 103.773Z" fill="#FDFCFC"/>
<path d="M211.905 112.144C210.395 111.854 208.946 111.498 208.869 109.572C209.823 110.497 211.359 110.751 211.905 112.144Z" fill="#DEA09E"/>
<path d="M164.02 81.207C165.722 81.7762 164.871 83.1736 165.052 84.256C164.627 83.8791 164.308 83.4 164.128 82.8656C163.947 82.3312 163.91 81.7597 164.02 81.207Z" fill="#CF8286"/>
<path d="M20.0331 184.567C20.0331 178.24 20.1362 171.909 19.9712 165.582C19.9248 163.778 20.6517 163.758 22.0333 163.671C32.0547 163.056 40.4936 170.313 42.6536 178.967C44.8806 187.855 41.2875 199.044 32.9723 203.252C29.3852 205.121 25.3609 206.024 21.3064 205.869C19.9351 205.818 19.8681 205.112 19.8733 204.05C19.9094 197.555 19.8733 191.061 19.8733 184.567H20.0331Z" fill="#52796F"/>
<path d="M150.282 171.518C150.911 172.29 151.349 172.63 151.514 173.068C153.746 178.932 155.849 184.837 158.561 190.518C159.303 192.073 157.963 192.078 156.901 192.078H145.075C142.796 192.078 142.291 191.305 143.183 189.166C144.694 185.543 146.245 181.935 147.725 178.307C148.555 176.193 149.323 174.063 150.282 171.518Z" fill="#52796F"/>
<path d="M308.687 142.313C311.816 142.349 314.579 145.144 314.491 148.193C314.419 150.805 311.78 153.198 308.991 153.188C306.125 153.188 303.32 150.348 303.32 147.492C303.322 146.803 303.462 146.121 303.734 145.486C304.005 144.851 304.402 144.275 304.902 143.793C305.401 143.311 305.993 142.932 306.643 142.678C307.293 142.424 307.988 142.3 308.687 142.313Z" fill="#E6E8EC"/>
<path d="M328.817 134.533C328.544 136.001 327.132 135.91 326.24 136.301C325.085 136.809 323.765 136.967 324.502 138.623C325.301 140.397 326.513 139.528 327.621 138.923C328.374 138.517 329.276 137.937 329.683 139.101C329.972 139.884 329.348 140.31 328.4 140.504C326.539 140.885 325.657 141.891 326.9 143.796C327.389 144.549 328.096 145.656 327.013 146.21C325.776 146.845 325.58 145.494 325.229 144.686C324.229 142.384 323.276 140.061 322.208 137.79C321.873 137.084 321.652 136.474 322.435 136.088C324.105 135.269 325.817 134.522 327.539 133.821C327.667 133.749 327.813 133.711 327.96 133.711C328.108 133.711 328.254 133.748 328.382 133.82C328.511 133.892 328.619 133.995 328.695 134.12C328.771 134.245 328.813 134.387 328.817 134.533Z" fill="#E6E8EC"/>
<path d="M316.688 148.03C315.729 145.87 314.78 143.705 313.806 141.55C313.337 140.534 313.162 139.762 314.667 139.325C316.172 138.888 317.384 138.059 318.791 137.495C319.306 137.282 320.085 137.19 320.337 137.882C320.59 138.573 319.971 138.959 319.446 139.213C318.77 139.538 317.899 139.391 317.332 140.001C316.765 140.61 314.852 140.25 316.219 142.125C317.11 143.339 317.471 143.959 318.76 142.704C319.121 142.348 319.925 142.475 320.446 142.226C320.966 141.977 321.167 141.906 321.42 142.424C321.631 142.862 321.673 143.232 321.147 143.441C320.832 143.568 320.497 143.639 320.167 143.736C317.59 144.513 317.224 145.956 318.817 148.004C319.152 148.787 318.879 149.457 318.095 149.564C317.059 149.696 317.126 148.538 316.688 148.03Z" fill="#E6E8EC"/>
<path d="M282.236 156.851C282.659 155.144 283.659 153.95 285.721 154.178C287.701 154.397 288.397 155.789 288.273 157.517C288.149 159.245 286.793 160.149 285.118 160.104C283.211 160.053 282.241 158.874 282.236 156.851Z" fill="#E6E8EC"/>
<path d="M295.397 157.293C296.8 153.787 297.686 150.087 298.588 146.388C298.605 146.261 298.65 146.14 298.719 146.032C298.789 145.924 298.881 145.832 298.99 145.763C299.099 145.694 299.222 145.649 299.35 145.631C299.478 145.614 299.609 145.624 299.733 145.661C299.881 145.693 300.02 145.756 300.14 145.847C300.261 145.937 300.359 146.053 300.429 146.186C300.499 146.318 300.539 146.464 300.545 146.613C300.551 146.762 300.524 146.911 300.465 147.049C299.743 149.401 299.145 151.82 298.13 154.051C297.563 155.296 297.728 156.506 297.496 157.715C297.341 158.513 296.82 159.016 296.14 158.96C295.155 158.889 295.542 157.954 295.397 157.293Z" fill="#E6E8EC"/>
<path d="M293.608 147.953C295.335 147.953 296.34 148.746 296.433 150.123C296.541 151.805 295.077 152.74 293.753 152.948C292.288 153.177 291.278 152.115 291.283 150.484C291.288 148.853 292.407 148.228 293.608 147.953Z" fill="#E6E8EC"/>
<path d="M302.347 151.877C302.662 151.879 302.974 151.946 303.262 152.073C303.549 152.201 303.807 152.385 304.019 152.616C304.23 152.847 304.391 153.119 304.49 153.414C304.589 153.709 304.624 154.022 304.594 154.331C304.548 155.891 303.084 156.796 301.872 156.832C301.532 156.852 301.192 156.797 300.875 156.673C300.559 156.548 300.274 156.356 300.042 156.11C299.81 155.865 299.635 155.572 299.531 155.252C299.427 154.932 299.395 154.593 299.439 154.26C299.532 152.563 300.413 151.882 302.347 151.877Z" fill="#E6E8EC"/>
<path d="M55.2483 112.047C56.898 107.855 60.9911 104.613 67.2906 105.126C72.2395 105.527 75.2139 107.921 77.0492 112.001C79.0699 116.493 79.1576 121.148 76.8791 125.605C73.1004 133.039 64.311 134.549 57.8516 128.938C57.705 128.853 57.5446 128.793 57.3774 128.76C56.4495 127.912 56.1092 126.672 55.3154 125.747C53.5459 121.351 53.522 116.459 55.2483 112.047Z" fill="#52796F"/>
<path d="M55.2485 112.047C55.166 114.689 53.892 117.2 54.3407 119.898C54.6605 121.849 54.9768 123.799 55.2898 125.747C55.0577 125.666 54.645 125.625 54.6089 125.488C53.3865 121.113 53.2008 116.722 54.5728 112.342C54.6347 112.189 55.0267 112.143 55.2485 112.047Z" fill="#52796F"/>
<path d="M55.3047 125.748C56.5368 126.393 57.078 127.501 57.3667 128.761C55.8769 128.304 55.5831 127.029 55.3047 125.748Z" fill="#52796F"/>
<path d="M114.531 67.4915C114.232 62.6131 115.686 58.3446 120.589 56.5253C127.29 54.0557 132.626 56.4897 134.451 62.9586C135.59 67.0239 135.6 71.3738 132.801 75.2969C130.193 78.9455 125.62 79.8246 121.723 78.9048C117.645 77.9393 114.624 73.6809 114.537 70.266C114.531 69.3463 114.531 68.4214 114.531 67.4915Z" fill="#52796F"/>
<path d="M144.431 29.5008C139.275 25.4354 140.105 15.4602 144.003 11.5219C146.926 8.56951 150.472 7.92412 154.37 8.89471C157.978 9.78908 159.855 12.2994 161.014 15.6889C162.68 20.552 161.984 24.9019 158.854 28.9418C157.906 30.4409 156.277 30.9033 154.761 31.4826C152.601 32.2709 150.228 32.2834 148.06 31.5181C146.726 31.0892 145.493 30.4035 144.431 29.5008Z" fill="#52796F"/>
<path d="M148.039 31.5336L154.741 31.498C153.282 32.9514 149.586 32.9717 148.039 31.5336Z" fill="#173F35"/>
<path d="M154.777 31.4978L158.87 28.957C158.407 31.1879 156.757 31.5944 154.777 31.4978Z" fill="#DE919C"/>
<path d="M144.431 29.5C145.833 29.8252 146.874 30.7806 148.039 31.5327C146.323 31.7562 145.111 31.1007 144.431 29.5Z" fill="#173F35"/>
<path d="M92.8231 20.3083C92.8231 17.1069 92.8644 13.9055 92.8231 10.704C92.787 8.77302 93.5912 8.23946 95.5141 8.49862C100.86 9.22022 104.566 12.8637 105.453 18.3163C106.293 23.4945 104.37 27.7987 99.6588 30.8476C98.0349 31.8995 95.9574 32.0469 94.0294 32.2044C92.6581 32.3111 92.8128 31.0661 92.8076 30.1717C92.8076 26.8839 92.8076 23.6012 92.8076 20.3185L92.8231 20.3083Z" fill="#52796F"/>
<path d="M46.3555 59.9305V58.1672C46.3555 54.6406 46.3555 54.6406 50.0208 54.8489C53.5314 55.0471 55.7532 56.9832 55.6914 59.961C55.6295 63.4775 54.0985 64.565 50.1909 65.2764C46.3813 65.9777 46.3401 65.7388 46.3504 61.9428L46.3555 59.9305Z" fill="#52796F"/>
<path d="M312.455 148.441C312.352 149.879 311.635 151.266 309.362 151.312C307.089 151.358 305.434 149.788 305.398 147.404C305.372 145.448 306.815 143.756 308.45 143.847C310.424 143.918 312.404 145.961 312.455 148.441Z" fill="#173F35"/>
<path d="M294.588 150.261C294.629 150.82 294.49 151.324 293.82 151.237C293.304 151.166 292.582 151.151 292.608 150.302C292.608 149.55 293.201 149.352 293.789 149.286C294.531 149.179 294.5 149.789 294.588 150.261Z" fill="#173F35"/>
<path d="M302.738 154.25C302.738 154.845 302.485 155.196 301.846 155.135C301.701 155.14 301.556 155.115 301.421 155.059C301.287 155.004 301.166 154.92 301.068 154.814C300.97 154.708 300.897 154.583 300.853 154.446C300.809 154.309 300.796 154.164 300.815 154.022C300.815 153.366 301.253 153.199 301.789 153.148C302.609 153.072 302.692 153.62 302.738 154.25Z" fill="#173F35"/>
</svg>
